<svg width="16" height="17" viewBox="0 0 16 17" fill="none" xmlns="http://www.w3.org/2000/svg">
<g id="Icon" clip-path="url(#clip0_2230_265)">
<g id="Group">
<path id="Vector" d="M8 0.5C3.58218 0.5 0 4.08148 0 8.49965C0 12.9178 3.58183 16.4993 8 16.4993C12.4185 16.4993 16 12.9178 16 8.49965C16 4.08148 12.4185 0.5 8 0.5ZM8 2.89199C9.46183 2.89199 10.6464 4.07691 10.6464 5.53804C10.6464 6.99952 9.46183 8.18409 8 8.18409C6.53887 8.18409 5.3543 6.99952 5.3543 5.53804C5.3543 4.07691 6.53887 2.89199 8 2.89199ZM7.99824 14.4078C6.54028 14.4078 5.20495 13.8768 4.175 12.9979C3.9241 12.7839 3.77932 12.4701 3.77932 12.1409C3.77932 10.659 4.97865 9.47303 6.46086 9.47303H9.53984C11.0224 9.47303 12.2172 10.659 12.2172 12.1409C12.2172 12.4705 12.0731 12.7836 11.8218 12.9976C10.7922 13.8768 9.45656 14.4078 7.99824 14.4078Z" fill="#F4CB5F"/>
</g>
</g>
<defs>
<clipPath id="clip0_2230_265">
<rect width="16" height="16" fill="white" transform="translate(0 0.5)"/>
</clipPath>
</defs>
</svg>
