<svg width="32" height="32" viewBox="0 0 32 32" fill="none" xmlns="http://www.w3.org/2000/svg">
<g id="Layer_3">
<rect x="0.75" y="0.75" width="30.5" height="30.5" rx="15.25" stroke="#0236A6" stroke-width="1.5"/>
<g id="Group 1000007827">
<path id="Vector" d="M23.6531 20.2057C23.1537 19.7869 20.2246 17.932 19.7377 18.0171C19.5091 18.0577 19.3343 18.2526 18.8663 18.8109C18.6499 19.0856 18.4122 19.343 18.1554 19.5806C17.685 19.4669 17.2297 19.2982 16.7989 19.0777C15.1093 18.2551 13.7444 16.8898 12.9223 15.2C12.7019 14.7692 12.5331 14.3138 12.4194 13.8434C12.657 13.5867 12.9144 13.349 13.1891 13.1326C13.7469 12.6646 13.9423 12.4909 13.9829 12.2611C14.068 11.7731 12.2114 8.84514 11.7943 8.34571C11.6194 8.13886 11.4606 8 11.2571 8C10.6674 8 8 11.2983 8 11.7257C8 11.7606 8.05714 15.1943 12.3937 19.6063C16.8057 23.9429 20.2394 24 20.2743 24C20.7017 24 24 21.3326 24 20.7429C24 20.5394 23.8611 20.3806 23.6531 20.2057Z" fill="#0236A6"/>
<path id="Vector_2" d="M20.0008 15.4289H21.1437C21.1423 14.2169 20.6603 13.0549 19.8033 12.1979C18.9462 11.3409 17.7843 10.8588 16.5723 10.8574V12.0003C17.4813 12.0012 18.3528 12.3627 18.9956 13.0055C19.6384 13.6483 19.9999 14.5198 20.0008 15.4289Z" fill="#0236A6"/>
<path id="Vector_3" d="M22.858 15.4286H24.0008C23.9986 13.4591 23.2152 11.5709 21.8226 10.1783C20.4299 8.78565 18.5417 8.00227 16.5723 8V9.14286C18.2387 9.14482 19.8364 9.8077 21.0148 10.9861C22.1931 12.1644 22.856 13.7621 22.858 15.4286Z" fill="#0236A6"/>
</g>
</g>
</svg>
