<svg width="49" height="50" viewBox="0 0 49 50" fill="none" xmlns="http://www.w3.org/2000/svg">
<rect width="49" height="50" fill="#1E1E1E"/>
<g id="About Us Section">
<rect width="1440" height="780" transform="translate(-960 -258)" fill="#F4FAFF"/>
<g id="About us">
<g id="Content">
<g id="Text Content">
<g id="Text">
<path id="We Maintain Top Standards for Our Cleaners." d="M-215.016 -68L-224.172 -100H-216.781L-211.484 -77.7656H-211.219L-205.375 -100H-199.047L-193.219 -77.7188H-192.937L-187.641 -100H-180.25L-189.406 -68H-196L-202.094 -88.9219H-202.344L-208.422 -68H-215.016ZM-168.395 -67.5312C-170.863 -67.5312 -172.988 -68.0312 -174.77 -69.0312C-176.54 -70.0417 -177.905 -71.4688 -178.863 -73.3125C-179.822 -75.1667 -180.301 -77.3594 -180.301 -79.8906C-180.301 -82.3594 -179.822 -84.526 -178.863 -86.3906C-177.905 -88.2552 -176.556 -89.7083 -174.816 -90.75C-173.066 -91.7917 -171.014 -92.3125 -168.66 -92.3125C-167.077 -92.3125 -165.603 -92.0573 -164.238 -91.5469C-162.863 -91.0469 -161.665 -90.2917 -160.645 -89.2813C-159.613 -88.2708 -158.811 -87 -158.238 -85.4688C-157.665 -83.9479 -157.379 -82.1667 -157.379 -80.125V-78.2969H-177.645V-82.4219H-163.645C-163.645 -83.3802 -163.853 -84.2292 -164.27 -84.9687C-164.686 -85.7083 -165.264 -86.2865 -166.004 -86.7031C-166.733 -87.1302 -167.582 -87.3438 -168.551 -87.3438C-169.561 -87.3438 -170.457 -87.1094 -171.238 -86.6406C-172.009 -86.1823 -172.613 -85.5625 -173.051 -84.7813C-173.488 -84.0104 -173.712 -83.151 -173.723 -82.2031V-78.2813C-173.723 -77.0938 -173.504 -76.0677 -173.066 -75.2031C-172.618 -74.3385 -171.988 -73.6719 -171.176 -73.2031C-170.363 -72.7344 -169.4 -72.5 -168.285 -72.5C-167.546 -72.5 -166.868 -72.6042 -166.254 -72.8125C-165.639 -73.0208 -165.113 -73.3333 -164.676 -73.75C-164.238 -74.1667 -163.905 -74.6771 -163.676 -75.2812L-157.52 -74.875C-157.832 -73.3958 -158.473 -72.1042 -159.441 -71C-160.4 -69.9063 -161.639 -69.0521 -163.16 -68.4375C-164.671 -67.8333 -166.415 -67.5312 -168.395 -67.5312ZM-142.727 -100H-134.383L-125.57 -78.5H-125.195L-116.383 -100H-108.039V-68H-114.602V-88.8281H-114.867L-123.148 -68.1563H-127.617L-135.898 -88.9063H-136.164V-68H-142.727V-100ZM-95.7461 -67.5469C-97.2773 -67.5469 -98.6419 -67.8125 -99.8398 -68.3438C-101.038 -68.8854 -101.986 -69.6823 -102.684 -70.7344C-103.371 -71.7969 -103.715 -73.1198 -103.715 -74.7031C-103.715 -76.0365 -103.47 -77.1563 -102.98 -78.0625C-102.491 -78.9687 -101.824 -79.6979 -100.98 -80.25C-100.137 -80.8021 -99.1784 -81.2188 -98.1055 -81.5C-97.0221 -81.7813 -95.8867 -81.9792 -94.6992 -82.0938C-93.3034 -82.2396 -92.1784 -82.375 -91.3242 -82.5C-90.4701 -82.6354 -89.8503 -82.8333 -89.4648 -83.0938C-89.0794 -83.3542 -88.8867 -83.7396 -88.8867 -84.25V-84.3438C-88.8867 -85.3333 -89.1992 -86.099 -89.8242 -86.6406C-90.4388 -87.1823 -91.3138 -87.4531 -92.4492 -87.4531C-93.6471 -87.4531 -94.6003 -87.1875 -95.3086 -86.6563C-96.0169 -86.1354 -96.4857 -85.4792 -96.7148 -84.6875L-102.871 -85.1875C-102.559 -86.6458 -101.944 -87.9063 -101.027 -88.9688C-100.111 -90.0417 -98.9284 -90.8646 -97.4805 -91.4375C-96.0221 -92.0208 -94.3346 -92.3125 -92.418 -92.3125C-91.0846 -92.3125 -89.8086 -92.1563 -88.5898 -91.8438C-87.3607 -91.5313 -86.2721 -91.0469 -85.3242 -90.3906C-84.3659 -89.7344 -83.6107 -88.8906 -83.0586 -87.8594C-82.5065 -86.8385 -82.2305 -85.6146 -82.2305 -84.1875V-68H-88.543V-71.3281H-88.7305C-89.1159 -70.5781 -89.6315 -69.9167 -90.2773 -69.3438C-90.9232 -68.7813 -91.6992 -68.3385 -92.6055 -68.0156C-93.5117 -67.7031 -94.5586 -67.5469 -95.7461 -67.5469ZM-93.8398 -72.1406C-92.8607 -72.1406 -91.9961 -72.3333 -91.2461 -72.7188C-90.4961 -73.1146 -89.9076 -73.6458 -89.4805 -74.3125C-89.0534 -74.9792 -88.8398 -75.7344 -88.8398 -76.5781V-79.125C-89.0482 -78.9896 -89.3346 -78.8646 -89.6992 -78.75C-90.0534 -78.6458 -90.4544 -78.5469 -90.9023 -78.4531C-91.3503 -78.3698 -91.7982 -78.2917 -92.2461 -78.2188C-92.694 -78.1563 -93.1003 -78.099 -93.4648 -78.0469C-94.2461 -77.9323 -94.9284 -77.75 -95.5117 -77.5C-96.0951 -77.25 -96.5482 -76.9115 -96.8711 -76.4844C-97.194 -76.0677 -97.3555 -75.5469 -97.3555 -74.9219C-97.3555 -74.0156 -97.0273 -73.3229 -96.3711 -72.8438C-95.7044 -72.375 -94.8607 -72.1406 -93.8398 -72.1406ZM-77.0664 -68V-92H-70.4102V-68H-77.0664ZM-73.7227 -95.0938C-74.7122 -95.0938 -75.5612 -95.4219 -76.2695 -96.0781C-76.9674 -96.7448 -77.3164 -97.5417 -77.3164 -98.4688C-77.3164 -99.3854 -76.9674 -100.172 -76.2695 -100.828C-75.5612 -101.495 -74.7122 -101.828 -73.7227 -101.828C-72.7331 -101.828 -71.8893 -101.495 -71.1914 -100.828C-70.4831 -100.172 -70.1289 -99.3854 -70.1289 -98.4688C-70.1289 -97.5417 -70.4831 -96.7448 -71.1914 -96.0781C-71.8893 -95.4219 -72.7331 -95.0938 -73.7227 -95.0938ZM-58.4219 -81.875V-68H-65.0781V-92H-58.7344V-87.7656H-58.4531C-57.9219 -89.1615 -57.0312 -90.2656 -55.7812 -91.0781C-54.5313 -91.901 -53.0156 -92.3125 -51.2344 -92.3125C-49.5677 -92.3125 -48.1146 -91.9479 -46.875 -91.2188C-45.6354 -90.4896 -44.6719 -89.4479 -43.9844 -88.0938C-43.2969 -86.75 -42.9531 -85.1458 -42.9531 -83.2813V-68H-49.6094V-82.0938C-49.599 -83.5625 -49.974 -84.7083 -50.7344 -85.5312C-51.4948 -86.3646 -52.5417 -86.7813 -53.875 -86.7813C-54.7708 -86.7813 -55.5625 -86.5885 -56.25 -86.2031C-56.9271 -85.8177 -57.4583 -85.2552 -57.8437 -84.5156C-58.2187 -83.7865 -58.4115 -82.9062 -58.4219 -81.875ZM-24.9414 -92V-87H-39.3945V-92H-24.9414ZM-36.1133 -97.75H-29.457V-75.375C-29.457 -74.7604 -29.3633 -74.2813 -29.1758 -73.9375C-28.9883 -73.6042 -28.7279 -73.3698 -28.3945 -73.2344C-28.0508 -73.099 -27.6549 -73.0313 -27.207 -73.0313C-26.8945 -73.0313 -26.582 -73.0573 -26.2695 -73.1094C-25.957 -73.1719 -25.7174 -73.2188 -25.5508 -73.25L-24.5039 -68.2969C-24.8372 -68.1927 -25.306 -68.0729 -25.9102 -67.9375C-26.5143 -67.7917 -27.2487 -67.7031 -28.1133 -67.6719C-29.7174 -67.6094 -31.1237 -67.8229 -32.332 -68.3125C-33.5299 -68.8021 -34.4622 -69.5625 -35.1289 -70.5938C-35.7956 -71.625 -36.1237 -72.9271 -36.1133 -74.5V-97.75ZM-13.7617 -67.5469C-15.293 -67.5469 -16.6576 -67.8125 -17.8555 -68.3438C-19.0534 -68.8854 -20.0013 -69.6823 -20.6992 -70.7344C-21.3867 -71.7969 -21.7305 -73.1198 -21.7305 -74.7031C-21.7305 -76.0365 -21.4857 -77.1563 -20.9961 -78.0625C-20.5065 -78.9687 -19.8398 -79.6979 -18.9961 -80.25C-18.1523 -80.8021 -17.194 -81.2188 -16.1211 -81.5C-15.0378 -81.7813 -13.9023 -81.9792 -12.7148 -82.0938C-11.319 -82.2396 -10.194 -82.375 -9.33984 -82.5C-8.48568 -82.6354 -7.86588 -82.8333 -7.48047 -83.0938C-7.09505 -83.3542 -6.90234 -83.7396 -6.90234 -84.25V-84.3438C-6.90234 -85.3333 -7.21484 -86.099 -7.83984 -86.6406C-8.45443 -87.1823 -9.32943 -87.4531 -10.4648 -87.4531C-11.6628 -87.4531 -12.6159 -87.1875 -13.3242 -86.6563C-14.0326 -86.1354 -14.5013 -85.4792 -14.7305 -84.6875L-20.8867 -85.1875C-20.5742 -86.6458 -19.9596 -87.9063 -19.043 -88.9688C-18.1263 -90.0417 -16.944 -90.8646 -15.4961 -91.4375C-14.0378 -92.0208 -12.3503 -92.3125 -10.4336 -92.3125C-9.10026 -92.3125 -7.82422 -92.1563 -6.60547 -91.8438C-5.3763 -91.5313 -4.28776 -91.0469 -3.33984 -90.3906C-2.38151 -89.7344 -1.6263 -88.8906 -1.07422 -87.8594C-0.522136 -86.8385 -0.246094 -85.6146 -0.246094 -84.1875V-68H-6.55859V-71.3281H-6.74609C-7.13151 -70.5781 -7.64714 -69.9167 -8.29297 -69.3438C-8.9388 -68.7813 -9.71484 -68.3385 -10.6211 -68.0156C-11.5273 -67.7031 -12.5742 -67.5469 -13.7617 -67.5469ZM-11.8555 -72.1406C-10.8763 -72.1406 -10.0117 -72.3333 -9.26172 -72.7188C-8.51172 -73.1146 -7.92318 -73.6458 -7.49609 -74.3125C-7.06901 -74.9792 -6.85547 -75.7344 -6.85547 -76.5781V-79.125C-7.0638 -78.9896 -7.35026 -78.8646 -7.71484 -78.75C-8.06901 -78.6458 -8.47005 -78.5469 -8.91797 -78.4531C-9.36588 -78.3698 -9.8138 -78.2917 -10.2617 -78.2188C-10.7096 -78.1563 -11.1159 -78.099 -11.4805 -78.0469C-12.2617 -77.9323 -12.944 -77.75 -13.5273 -77.5C-14.1107 -77.25 -14.5638 -76.9115 -14.8867 -76.4844C-15.2096 -76.0677 -15.3711 -75.5469 -15.3711 -74.9219C-15.3711 -74.0156 -15.043 -73.3229 -14.3867 -72.8438C-13.7201 -72.375 -12.8763 -72.1406 -11.8555 -72.1406ZM4.91797 -68V-92H11.5742V-68H4.91797ZM8.26172 -95.0938C7.27214 -95.0938 6.42318 -95.4219 5.71484 -96.0781C5.01693 -96.7448 4.66797 -97.5417 4.66797 -98.4688C4.66797 -99.3854 5.01693 -100.172 5.71484 -100.828C6.42318 -101.495 7.27214 -101.828 8.26172 -101.828C9.2513 -101.828 10.0951 -101.495 10.793 -100.828C11.5013 -100.172 11.8555 -99.3854 11.8555 -98.4688C11.8555 -97.5417 11.5013 -96.7448 10.793 -96.0781C10.0951 -95.4219 9.2513 -95.0938 8.26172 -95.0938ZM23.5625 -81.875V-68H16.9063V-92H23.25V-87.7656H23.5312C24.0625 -89.1615 24.9531 -90.2656 26.2031 -91.0781C27.4531 -91.901 28.9687 -92.3125 30.75 -92.3125C32.4167 -92.3125 33.8698 -91.9479 35.1094 -91.2188C36.349 -90.4896 37.3125 -89.4479 38 -88.0938C38.6875 -86.75 39.0313 -85.1458 39.0313 -83.2813V-68H32.375V-82.0938C32.3854 -83.5625 32.0104 -84.7083 31.25 -85.5312C30.4896 -86.3646 29.4427 -86.7813 28.1094 -86.7813C27.2135 -86.7813 26.4219 -86.5885 25.7344 -86.2031C25.0573 -85.8177 24.526 -85.2552 24.1406 -84.5156C23.7656 -83.7865 23.5729 -82.9062 23.5625 -81.875ZM53.3672 -94.4219V-100H79.6484V-94.4219H69.8516V-68H63.1641V-94.4219H53.3672ZM91.2148 -67.5312C88.7878 -67.5312 86.6888 -68.0469 84.918 -69.0781C83.1576 -70.1198 81.7982 -71.5677 80.8398 -73.4219C79.8815 -75.2865 79.4023 -77.4479 79.4023 -79.9063C79.4023 -82.3854 79.8815 -84.5521 80.8398 -86.4063C81.7982 -88.2708 83.1576 -89.7188 84.918 -90.75C86.6888 -91.7917 88.7878 -92.3125 91.2148 -92.3125C93.6419 -92.3125 95.7357 -91.7917 97.4961 -90.75C99.2669 -89.7188 100.632 -88.2708 101.59 -86.4063C102.548 -84.5521 103.027 -82.3854 103.027 -79.9063C103.027 -77.4479 102.548 -75.2865 101.59 -73.4219C100.632 -71.5677 99.2669 -70.1198 97.4961 -69.0781C95.7357 -68.0469 93.6419 -67.5312 91.2148 -67.5312ZM91.2461 -72.6875C92.3503 -72.6875 93.2721 -73 94.0117 -73.625C94.7513 -74.2604 95.3086 -75.125 95.6836 -76.2188C96.069 -77.3125 96.2617 -78.5573 96.2617 -79.9531C96.2617 -81.349 96.069 -82.5937 95.6836 -83.6875C95.3086 -84.7813 94.7513 -85.6458 94.0117 -86.2813C93.2721 -86.9167 92.3503 -87.2344 91.2461 -87.2344C90.1315 -87.2344 89.194 -86.9167 88.4336 -86.2813C87.6836 -85.6458 87.1159 -84.7813 86.7305 -83.6875C86.3555 -82.5937 86.168 -81.349 86.168 -79.9531C86.168 -78.5573 86.3555 -77.3125 86.7305 -76.2188C87.1159 -75.125 87.6836 -74.2604 88.4336 -73.625C89.194 -73 90.1315 -72.6875 91.2461 -72.6875ZM107.355 -59V-92H113.918V-87.9688H114.215C114.507 -88.6146 114.928 -89.2708 115.48 -89.9375C116.043 -90.6146 116.772 -91.1771 117.668 -91.625C118.574 -92.0833 119.699 -92.3125 121.043 -92.3125C122.793 -92.3125 124.408 -91.8542 125.887 -90.9375C127.366 -90.0313 128.548 -88.6615 129.434 -86.8281C130.319 -85.0052 130.762 -82.7188 130.762 -79.9688C130.762 -77.2917 130.329 -75.0313 129.465 -73.1875C128.611 -71.3542 127.444 -69.9635 125.965 -69.0156C124.496 -68.0781 122.85 -67.6094 121.027 -67.6094C119.736 -67.6094 118.637 -67.8229 117.73 -68.25C116.835 -68.6771 116.1 -69.2135 115.527 -69.8594C114.954 -70.5156 114.517 -71.1771 114.215 -71.8438H114.012V-59H107.355ZM113.871 -80C113.871 -78.5729 114.069 -77.3281 114.465 -76.2656C114.861 -75.2031 115.434 -74.375 116.184 -73.7813C116.934 -73.1979 117.845 -72.9063 118.918 -72.9063C120.001 -72.9063 120.918 -73.2031 121.668 -73.7969C122.418 -74.401 122.986 -75.2344 123.371 -76.2969C123.767 -77.3698 123.965 -78.6042 123.965 -80C123.965 -81.3854 123.772 -82.6042 123.387 -83.6563C123.001 -84.7083 122.434 -85.5313 121.684 -86.125C120.934 -86.7188 120.012 -87.0156 118.918 -87.0156C117.835 -87.0156 116.918 -86.7292 116.168 -86.1563C115.428 -85.5833 114.861 -84.7708 114.465 -83.7188C114.069 -82.6667 113.871 -81.4271 113.871 -80ZM-204.859 -36.7969C-204.984 -38.0573 -205.521 -39.0365 -206.469 -39.7344C-207.417 -40.4323 -208.703 -40.7813 -210.328 -40.7813C-211.432 -40.7813 -212.365 -40.625 -213.125 -40.3125C-213.885 -40.0104 -214.469 -39.5885 -214.875 -39.0469C-215.271 -38.5052 -215.469 -37.8906 -215.469 -37.2031C-215.49 -36.6302 -215.37 -36.1302 -215.109 -35.7031C-214.839 -35.276 -214.469 -34.9063 -214 -34.5938C-213.531 -34.2917 -212.99 -34.026 -212.375 -33.7969C-211.76 -33.5781 -211.104 -33.3906 -210.406 -33.2344L-207.531 -32.5469C-206.135 -32.2344 -204.854 -31.8177 -203.688 -31.2969C-202.521 -30.776 -201.51 -30.1354 -200.656 -29.375C-199.802 -28.6146 -199.141 -27.7188 -198.672 -26.6875C-198.193 -25.6563 -197.948 -24.474 -197.938 -23.1406C-197.948 -21.1823 -198.448 -19.4844 -199.437 -18.0469C-200.417 -16.6198 -201.833 -15.5104 -203.688 -14.7188C-205.531 -13.9375 -207.755 -13.5469 -210.359 -13.5469C-212.943 -13.5469 -215.193 -13.9427 -217.109 -14.7344C-219.016 -15.526 -220.505 -16.6979 -221.578 -18.25C-222.641 -19.8125 -223.198 -21.7448 -223.25 -24.0469H-216.703C-216.63 -22.974 -216.323 -22.0781 -215.781 -21.3594C-215.229 -20.651 -214.495 -20.1146 -213.578 -19.75C-212.651 -19.3958 -211.604 -19.2188 -210.438 -19.2188C-209.292 -19.2188 -208.297 -19.3854 -207.453 -19.7188C-206.599 -20.0521 -205.937 -20.5156 -205.469 -21.1094C-205 -21.7031 -204.766 -22.3854 -204.766 -23.1563C-204.766 -23.875 -204.979 -24.4792 -205.406 -24.9688C-205.823 -25.4583 -206.437 -25.875 -207.25 -26.2188C-208.052 -26.5625 -209.036 -26.875 -210.203 -27.1563L-213.687 -28.0313C-216.385 -28.6875 -218.516 -29.7135 -220.078 -31.1094C-221.641 -32.5052 -222.417 -34.3854 -222.406 -36.75C-222.417 -38.6875 -221.901 -40.3802 -220.859 -41.8281C-219.807 -43.276 -218.365 -44.4063 -216.531 -45.2188C-214.698 -46.0313 -212.615 -46.4375 -210.281 -46.4375C-207.906 -46.4375 -205.833 -46.0313 -204.062 -45.2188C-202.281 -44.4063 -200.896 -43.276 -199.906 -41.8281C-198.917 -40.3802 -198.406 -38.7031 -198.375 -36.7969H-204.859ZM-180.746 -38V-33H-195.199V-38H-180.746ZM-191.918 -43.75H-185.262V-21.375C-185.262 -20.7604 -185.168 -20.2813 -184.98 -19.9375C-184.793 -19.6042 -184.533 -19.3698 -184.199 -19.2344C-183.855 -19.099 -183.46 -19.0313 -183.012 -19.0313C-182.699 -19.0313 -182.387 -19.0573 -182.074 -19.1094C-181.762 -19.1719 -181.522 -19.2188 -181.355 -19.25L-180.309 -14.2969C-180.642 -14.1927 -181.111 -14.0729 -181.715 -13.9375C-182.319 -13.7917 -183.053 -13.7031 -183.918 -13.6719C-185.522 -13.6094 -186.928 -13.8229 -188.137 -14.3125C-189.335 -14.8021 -190.267 -15.5625 -190.934 -16.5938C-191.6 -17.625 -191.928 -18.9271 -191.918 -20.5V-43.75ZM-169.566 -13.5469C-171.098 -13.5469 -172.462 -13.8125 -173.66 -14.3438C-174.858 -14.8854 -175.806 -15.6823 -176.504 -16.7344C-177.191 -17.7969 -177.535 -19.1198 -177.535 -20.7031C-177.535 -22.0365 -177.29 -23.1563 -176.801 -24.0625C-176.311 -24.9687 -175.645 -25.6979 -174.801 -26.25C-173.957 -26.8021 -172.999 -27.2188 -171.926 -27.5C-170.842 -27.7813 -169.707 -27.9792 -168.52 -28.0938C-167.124 -28.2396 -165.999 -28.375 -165.145 -28.5C-164.29 -28.6354 -163.671 -28.8333 -163.285 -29.0938C-162.9 -29.3542 -162.707 -29.7396 -162.707 -30.25V-30.3438C-162.707 -31.3333 -163.02 -32.099 -163.645 -32.6406C-164.259 -33.1823 -165.134 -33.4531 -166.27 -33.4531C-167.467 -33.4531 -168.421 -33.1875 -169.129 -32.6563C-169.837 -32.1354 -170.306 -31.4792 -170.535 -30.6875L-176.691 -31.1875C-176.379 -32.6458 -175.764 -33.9063 -174.848 -34.9688C-173.931 -36.0417 -172.749 -36.8646 -171.301 -37.4375C-169.842 -38.0208 -168.155 -38.3125 -166.238 -38.3125C-164.905 -38.3125 -163.629 -38.1563 -162.41 -37.8438C-161.181 -37.5313 -160.092 -37.0469 -159.145 -36.3906C-158.186 -35.7344 -157.431 -34.8906 -156.879 -33.8594C-156.327 -32.8385 -156.051 -31.6146 -156.051 -30.1875V-14H-162.363V-17.3281H-162.551C-162.936 -16.5781 -163.452 -15.9167 -164.098 -15.3438C-164.743 -14.7813 -165.52 -14.3385 -166.426 -14.0156C-167.332 -13.7031 -168.379 -13.5469 -169.566 -13.5469ZM-167.66 -18.1406C-166.681 -18.1406 -165.816 -18.3333 -165.066 -18.7188C-164.316 -19.1146 -163.728 -19.6458 -163.301 -20.3125C-162.874 -20.9792 -162.66 -21.7344 -162.66 -22.5781V-25.125C-162.868 -24.9896 -163.155 -24.8646 -163.52 -24.75C-163.874 -24.6458 -164.275 -24.5469 -164.723 -24.4531C-165.171 -24.3698 -165.618 -24.2917 -166.066 -24.2188C-166.514 -24.1563 -166.921 -24.099 -167.285 -24.0469C-168.066 -23.9323 -168.749 -23.75 -169.332 -23.5C-169.915 -23.25 -170.368 -22.9115 -170.691 -22.4844C-171.014 -22.0677 -171.176 -21.5469 -171.176 -20.9219C-171.176 -20.0156 -170.848 -19.3229 -170.191 -18.8438C-169.525 -18.375 -168.681 -18.1406 -167.66 -18.1406ZM-144.23 -27.875V-14H-150.887V-38H-144.543V-33.7656H-144.262C-143.73 -35.1615 -142.84 -36.2656 -141.59 -37.0781C-140.34 -37.901 -138.824 -38.3125 -137.043 -38.3125C-135.376 -38.3125 -133.923 -37.9479 -132.684 -37.2188C-131.444 -36.4896 -130.48 -35.4479 -129.793 -34.0938C-129.105 -32.75 -128.762 -31.1458 -128.762 -29.2813V-14H-135.418V-28.0938C-135.408 -29.5625 -135.783 -30.7083 -136.543 -31.5312C-137.303 -32.3646 -138.35 -32.7813 -139.684 -32.7813C-140.579 -32.7813 -141.371 -32.5885 -142.059 -32.2031C-142.736 -31.8177 -143.267 -31.2552 -143.652 -30.5156C-144.027 -29.7865 -144.22 -28.9062 -144.23 -27.875ZM-114.672 -13.6094C-116.495 -13.6094 -118.146 -14.0781 -119.625 -15.0156C-121.094 -15.9635 -122.26 -17.3542 -123.125 -19.1875C-123.979 -21.0313 -124.406 -23.2917 -124.406 -25.9688C-124.406 -28.7188 -123.964 -31.0052 -123.078 -32.8281C-122.193 -34.6615 -121.016 -36.0313 -119.547 -36.9375C-118.068 -37.8542 -116.448 -38.3125 -114.687 -38.3125C-113.344 -38.3125 -112.224 -38.0833 -111.328 -37.625C-110.422 -37.1771 -109.693 -36.6146 -109.141 -35.9375C-108.578 -35.2708 -108.151 -34.6146 -107.859 -33.9688H-107.656V-46H-101.016V-14H-107.578V-17.8438H-107.859C-108.172 -17.1771 -108.615 -16.5156 -109.187 -15.8594C-109.75 -15.2135 -110.484 -14.6771 -111.391 -14.25C-112.286 -13.8229 -113.38 -13.6094 -114.672 -13.6094ZM-112.562 -18.9063C-111.49 -18.9063 -110.583 -19.1979 -109.844 -19.7813C-109.094 -20.375 -108.521 -21.2031 -108.125 -22.2656C-107.719 -23.3281 -107.516 -24.5729 -107.516 -26C-107.516 -27.4271 -107.714 -28.6667 -108.109 -29.7188C-108.505 -30.7708 -109.078 -31.5833 -109.828 -32.1563C-110.578 -32.7292 -111.49 -33.0156 -112.562 -33.0156C-113.656 -33.0156 -114.578 -32.7188 -115.328 -32.125C-116.078 -31.5313 -116.646 -30.7083 -117.031 -29.6563C-117.417 -28.6042 -117.609 -27.3854 -117.609 -26C-117.609 -24.6042 -117.417 -23.3698 -117.031 -22.2969C-116.635 -21.2344 -116.068 -20.401 -115.328 -19.7969C-114.578 -19.2031 -113.656 -18.9063 -112.562 -18.9063ZM-88.6992 -13.5469C-90.2305 -13.5469 -91.5951 -13.8125 -92.793 -14.3438C-93.9909 -14.8854 -94.9388 -15.6823 -95.6367 -16.7344C-96.3242 -17.7969 -96.668 -19.1198 -96.668 -20.7031C-96.668 -22.0365 -96.4232 -23.1563 -95.9336 -24.0625C-95.444 -24.9687 -94.7773 -25.6979 -93.9336 -26.25C-93.0898 -26.8021 -92.1315 -27.2188 -91.0586 -27.5C-89.9753 -27.7813 -88.8398 -27.9792 -87.6523 -28.0938C-86.2565 -28.2396 -85.1315 -28.375 -84.2773 -28.5C-83.4232 -28.6354 -82.8034 -28.8333 -82.418 -29.0938C-82.0326 -29.3542 -81.8398 -29.7396 -81.8398 -30.25V-30.3438C-81.8398 -31.3333 -82.1523 -32.099 -82.7773 -32.6406C-83.3919 -33.1823 -84.2669 -33.4531 -85.4023 -33.4531C-86.6003 -33.4531 -87.5534 -33.1875 -88.2617 -32.6563C-88.9701 -32.1354 -89.4388 -31.4792 -89.668 -30.6875L-95.8242 -31.1875C-95.5117 -32.6458 -94.8971 -33.9063 -93.9805 -34.9688C-93.0638 -36.0417 -91.8815 -36.8646 -90.4336 -37.4375C-88.9753 -38.0208 -87.2878 -38.3125 -85.3711 -38.3125C-84.0378 -38.3125 -82.7617 -38.1563 -81.543 -37.8438C-80.3138 -37.5313 -79.2253 -37.0469 -78.2773 -36.3906C-77.319 -35.7344 -76.5638 -34.8906 -76.0117 -33.8594C-75.4596 -32.8385 -75.1836 -31.6146 -75.1836 -30.1875V-14H-81.4961V-17.3281H-81.6836C-82.069 -16.5781 -82.5846 -15.9167 -83.2305 -15.3438C-83.8763 -14.7813 -84.6523 -14.3385 -85.5586 -14.0156C-86.4648 -13.7031 -87.5117 -13.5469 -88.6992 -13.5469ZM-86.793 -18.1406C-85.8138 -18.1406 -84.9492 -18.3333 -84.1992 -18.7188C-83.4492 -19.1146 -82.8607 -19.6458 -82.4336 -20.3125C-82.0065 -20.9792 -81.793 -21.7344 -81.793 -22.5781V-25.125C-82.0013 -24.9896 -82.2878 -24.8646 -82.6523 -24.75C-83.0065 -24.6458 -83.4076 -24.5469 -83.8555 -24.4531C-84.3034 -24.3698 -84.7513 -24.2917 -85.1992 -24.2188C-85.6471 -24.1563 -86.0534 -24.099 -86.418 -24.0469C-87.1992 -23.9323 -87.8815 -23.75 -88.4648 -23.5C-89.0482 -23.25 -89.5013 -22.9115 -89.8242 -22.4844C-90.1471 -22.0677 -90.3086 -21.5469 -90.3086 -20.9219C-90.3086 -20.0156 -89.9805 -19.3229 -89.3242 -18.8438C-88.6576 -18.375 -87.8138 -18.1406 -86.793 -18.1406ZM-70.0195 -14V-38H-63.5664V-33.8125H-63.3164C-62.8789 -35.3021 -62.1445 -36.4271 -61.1133 -37.1875C-60.082 -37.9583 -58.8945 -38.3438 -57.5508 -38.3438C-57.2174 -38.3438 -56.8581 -38.3229 -56.4727 -38.2813C-56.0872 -38.2396 -55.7487 -38.1823 -55.457 -38.1094V-32.2031C-55.7695 -32.2969 -56.2018 -32.3802 -56.7539 -32.4531C-57.306 -32.526 -57.8112 -32.5625 -58.2695 -32.5625C-59.2487 -32.5625 -60.1237 -32.349 -60.8945 -31.9219C-61.6549 -31.5052 -62.2591 -30.9219 -62.707 -30.1719C-63.1445 -29.4219 -63.3633 -28.5573 -63.3633 -27.5781V-14H-70.0195ZM-44.2891 -13.6094C-46.112 -13.6094 -47.763 -14.0781 -49.2422 -15.0156C-50.7109 -15.9635 -51.8776 -17.3542 -52.7422 -19.1875C-53.5964 -21.0313 -54.0234 -23.2917 -54.0234 -25.9688C-54.0234 -28.7188 -53.5807 -31.0052 -52.6953 -32.8281C-51.8099 -34.6615 -50.6328 -36.0313 -49.1641 -36.9375C-47.6849 -37.8542 -46.0651 -38.3125 -44.3047 -38.3125C-42.9609 -38.3125 -41.8411 -38.0833 -40.9453 -37.625C-40.0391 -37.1771 -39.3099 -36.6146 -38.7578 -35.9375C-38.1953 -35.2708 -37.7682 -34.6146 -37.4766 -33.9688H-37.2734V-46H-30.6328V-14H-37.1953V-17.8438H-37.4766C-37.7891 -17.1771 -38.2318 -16.5156 -38.8047 -15.8594C-39.3672 -15.2135 -40.1016 -14.6771 -41.0078 -14.25C-41.9036 -13.8229 -42.9974 -13.6094 -44.2891 -13.6094ZM-42.1797 -18.9063C-41.1068 -18.9063 -40.2005 -19.1979 -39.4609 -19.7813C-38.7109 -20.375 -38.138 -21.2031 -37.7422 -22.2656C-37.3359 -23.3281 -37.1328 -24.5729 -37.1328 -26C-37.1328 -27.4271 -37.3307 -28.6667 -37.7266 -29.7188C-38.1224 -30.7708 -38.6953 -31.5833 -39.4453 -32.1563C-40.1953 -32.7292 -41.1068 -33.0156 -42.1797 -33.0156C-43.2734 -33.0156 -44.1953 -32.7188 -44.9453 -32.125C-45.6953 -31.5313 -46.263 -30.7083 -46.6484 -29.6563C-47.0339 -28.6042 -47.2266 -27.3854 -47.2266 -26C-47.2266 -24.6042 -47.0339 -23.3698 -46.6484 -22.2969C-46.2526 -21.2344 -45.6849 -20.401 -44.9453 -19.7969C-44.1953 -19.2031 -43.2734 -18.9063 -42.1797 -18.9063ZM-5.19141 -31.1563L-11.2852 -30.7813C-11.3893 -31.3021 -11.6133 -31.7708 -11.957 -32.1875C-12.3008 -32.6146 -12.7539 -32.9531 -13.3164 -33.2031C-13.8685 -33.4635 -14.5299 -33.5938 -15.3008 -33.5938C-16.332 -33.5938 -17.2018 -33.375 -17.9102 -32.9375C-18.6185 -32.5104 -18.9727 -31.9375 -18.9727 -31.2188C-18.9727 -30.6458 -18.7435 -30.1615 -18.2852 -29.7656C-17.8268 -29.3698 -17.0404 -29.0521 -15.9258 -28.8125L-11.582 -27.9375C-9.2487 -27.4583 -7.50911 -26.6875 -6.36328 -25.625C-5.21745 -24.5625 -4.64453 -23.1667 -4.64453 -21.4375C-4.64453 -19.8646 -5.10807 -18.4844 -6.03516 -17.2969C-6.95182 -16.1094 -8.21224 -15.1823 -9.81641 -14.5156C-11.4102 -13.8594 -13.2487 -13.5312 -15.332 -13.5312C-18.5091 -13.5312 -21.0404 -14.1927 -22.9258 -15.5156C-24.8008 -16.849 -25.8997 -18.6615 -26.2227 -20.9531L-19.6758 -21.2969C-19.4779 -20.3281 -18.9987 -19.5885 -18.2383 -19.0781C-17.4779 -18.5781 -16.5039 -18.3281 -15.3164 -18.3281C-14.1497 -18.3281 -13.2122 -18.5521 -12.5039 -19C-11.7852 -19.4583 -11.4206 -20.0469 -11.4102 -20.7656C-11.4206 -21.3698 -11.6758 -21.8646 -12.1758 -22.25C-12.6758 -22.6458 -13.4466 -22.9479 -14.4883 -23.1563L-18.6445 -23.9844C-20.9883 -24.4531 -22.7331 -25.2656 -23.8789 -26.4219C-25.0143 -27.5781 -25.582 -29.0521 -25.582 -30.8438C-25.582 -32.3854 -25.1654 -33.7135 -24.332 -34.8281C-23.4883 -35.9427 -22.306 -36.8021 -20.7852 -37.4063C-19.2539 -38.0104 -17.4622 -38.3125 -15.4102 -38.3125C-12.3789 -38.3125 -9.99349 -37.6719 -8.25391 -36.3906C-6.50391 -35.1094 -5.48307 -33.3646 -5.19141 -31.1563ZM22.6367 -38V-33H7.82422V-38H22.6367ZM11.2148 -14V-39.7344C11.2148 -41.474 11.5534 -42.9167 12.2305 -44.0625C12.918 -45.2083 13.8555 -46.0677 15.043 -46.6406C16.2305 -47.2135 17.5794 -47.5 19.0898 -47.5C20.1107 -47.5 21.043 -47.4219 21.8867 -47.2656C22.7409 -47.1094 23.3763 -46.9688 23.793 -46.8438L22.6055 -41.8438C22.3451 -41.9271 22.0221 -42.0052 21.6367 -42.0781C21.2617 -42.151 20.8763 -42.1875 20.4805 -42.1875C19.5013 -42.1875 18.819 -41.9583 18.4336 -41.5C18.0482 -41.0521 17.8555 -40.4219 17.8555 -39.6094V-14H11.2148ZM36.6875 -13.5312C34.2604 -13.5312 32.1615 -14.0469 30.3906 -15.0781C28.6302 -16.1198 27.2708 -17.5677 26.3125 -19.4219C25.3542 -21.2865 24.875 -23.4479 24.875 -25.9063C24.875 -28.3854 25.3542 -30.5521 26.3125 -32.4063C27.2708 -34.2708 28.6302 -35.7188 30.3906 -36.75C32.1615 -37.7917 34.2604 -38.3125 36.6875 -38.3125C39.1146 -38.3125 41.2083 -37.7917 42.9688 -36.75C44.7396 -35.7188 46.1042 -34.2708 47.0625 -32.4063C48.0208 -30.5521 48.5 -28.3854 48.5 -25.9063C48.5 -23.4479 48.0208 -21.2865 47.0625 -19.4219C46.1042 -17.5677 44.7396 -16.1198 42.9688 -15.0781C41.2083 -14.0469 39.1146 -13.5312 36.6875 -13.5312ZM36.7187 -18.6875C37.8229 -18.6875 38.7448 -19 39.4844 -19.625C40.224 -20.2604 40.7813 -21.125 41.1563 -22.2188C41.5417 -23.3125 41.7344 -24.5573 41.7344 -25.9531C41.7344 -27.349 41.5417 -28.5937 41.1563 -29.6875C40.7813 -30.7813 40.224 -31.6458 39.4844 -32.2813C38.7448 -32.9167 37.8229 -33.2344 36.7187 -33.2344C35.6042 -33.2344 34.6667 -32.9167 33.9063 -32.2813C33.1563 -31.6458 32.5885 -30.7813 32.2031 -29.6875C31.8281 -28.5937 31.6406 -27.349 31.6406 -25.9531C31.6406 -24.5573 31.8281 -23.3125 32.2031 -22.2188C32.5885 -21.125 33.1563 -20.2604 33.9063 -19.625C34.6667 -19 35.6042 -18.6875 36.7187 -18.6875ZM52.8281 -14V-38H59.2812V-33.8125H59.5313C59.9688 -35.3021 60.7031 -36.4271 61.7344 -37.1875C62.7656 -37.9583 63.9531 -38.3438 65.2969 -38.3438C65.6302 -38.3438 65.9896 -38.3229 66.375 -38.2813C66.7604 -38.2396 67.099 -38.1823 67.3906 -38.1094V-32.2031C67.0781 -32.2969 66.6458 -32.3802 66.0938 -32.4531C65.5417 -32.526 65.0365 -32.5625 64.5781 -32.5625C63.599 -32.5625 62.724 -32.349 61.9531 -31.9219C61.1927 -31.5052 60.5885 -30.9219 60.1406 -30.1719C59.7031 -29.4219 59.4844 -28.5573 59.4844 -27.5781V-14H52.8281ZM110.547 -30C110.547 -26.5104 109.885 -23.5417 108.563 -21.0938C107.25 -18.6458 105.458 -16.776 103.187 -15.4844C100.927 -14.2031 98.3854 -13.5625 95.5625 -13.5625C92.7188 -13.5625 90.1667 -14.2083 87.9063 -15.5C85.6458 -16.7917 83.8594 -18.6615 82.5469 -21.1094C81.2344 -23.5573 80.5781 -26.5208 80.5781 -30C80.5781 -33.4896 81.2344 -36.4583 82.5469 -38.9062C83.8594 -41.3542 85.6458 -43.2188 87.9063 -44.5C90.1667 -45.7917 92.7188 -46.4375 95.5625 -46.4375C98.3854 -46.4375 100.927 -45.7917 103.187 -44.5C105.458 -43.2188 107.25 -41.3542 108.563 -38.9062C109.885 -36.4583 110.547 -33.4896 110.547 -30ZM103.688 -30C103.688 -32.2604 103.349 -34.1667 102.672 -35.7188C102.005 -37.2708 101.063 -38.4479 99.8438 -39.25C98.625 -40.0521 97.1979 -40.4531 95.5625 -40.4531C93.9271 -40.4531 92.5 -40.0521 91.2813 -39.25C90.0625 -38.4479 89.1146 -37.2708 88.4375 -35.7188C87.7708 -34.1667 87.4375 -32.2604 87.4375 -30C87.4375 -27.7396 87.7708 -25.8333 88.4375 -24.2813C89.1146 -22.7292 90.0625 -21.5521 91.2813 -20.75C92.5 -19.9479 93.9271 -19.5469 95.5625 -19.5469C97.1979 -19.5469 98.625 -19.9479 99.8438 -20.75C101.063 -21.5521 102.005 -22.7292 102.672 -24.2813C103.349 -25.8333 103.688 -27.7396 103.688 -30ZM130.824 -24.2188V-38H137.48V-14H131.09V-18.3594H130.84C130.298 -16.9531 129.397 -15.8229 128.137 -14.9688C126.887 -14.1146 125.361 -13.6875 123.559 -13.6875C121.954 -13.6875 120.543 -14.0521 119.324 -14.7812C118.105 -15.5104 117.152 -16.5469 116.465 -17.8906C115.788 -19.2344 115.444 -20.8438 115.434 -22.7188V-38H122.09V-23.9063C122.1 -22.4896 122.48 -21.3698 123.23 -20.5469C123.98 -19.724 124.986 -19.3125 126.246 -19.3125C127.048 -19.3125 127.798 -19.4948 128.496 -19.8594C129.194 -20.2344 129.757 -20.7865 130.184 -21.5156C130.621 -22.2448 130.835 -23.1458 130.824 -24.2188ZM142.805 -14V-38H149.258V-33.8125H149.508C149.945 -35.3021 150.68 -36.4271 151.711 -37.1875C152.742 -37.9583 153.93 -38.3438 155.273 -38.3438C155.607 -38.3438 155.966 -38.3229 156.352 -38.2813C156.737 -38.2396 157.076 -38.1823 157.367 -38.1094V-32.2031C157.055 -32.2969 156.622 -32.3802 156.07 -32.4531C155.518 -32.526 155.013 -32.5625 154.555 -32.5625C153.576 -32.5625 152.701 -32.349 151.93 -31.9219C151.169 -31.5052 150.565 -30.9219 150.117 -30.1719C149.68 -29.4219 149.461 -28.5573 149.461 -27.5781V-14H142.805ZM-193.984 19.2031H-200.828C-200.953 18.3177 -201.208 17.5312 -201.594 16.8437C-201.979 16.1458 -202.474 15.5521 -203.078 15.0625C-203.682 14.5729 -204.38 14.1979 -205.172 13.9375C-205.953 13.6771 -206.802 13.5469 -207.719 13.5469C-209.375 13.5469 -210.818 13.9583 -212.047 14.7812C-213.276 15.5937 -214.229 16.7812 -214.906 18.3438C-215.583 19.8958 -215.922 21.7812 -215.922 24C-215.922 26.2812 -215.583 28.1979 -214.906 29.75C-214.219 31.3021 -213.26 32.474 -212.031 33.2656C-210.802 34.0573 -209.38 34.4531 -207.766 34.4531C-206.859 34.4531 -206.021 34.3333 -205.25 34.0938C-204.469 33.8542 -203.776 33.5052 -203.172 33.0469C-202.568 32.5781 -202.068 32.0104 -201.672 31.3438C-201.266 30.6771 -200.984 29.9167 -200.828 29.0625L-193.984 29.0937C-194.161 30.5625 -194.604 31.9792 -195.312 33.3438C-196.01 34.6979 -196.953 35.9115 -198.141 36.9844C-199.318 38.0469 -200.724 38.8906 -202.359 39.5156C-203.984 40.1302 -205.823 40.4375 -207.875 40.4375C-210.729 40.4375 -213.281 39.7917 -215.531 38.5C-217.771 37.2083 -219.542 35.3385 -220.844 32.8906C-222.135 30.4427 -222.781 27.4792 -222.781 24C-222.781 20.5104 -222.125 17.5417 -220.812 15.0938C-219.5 12.6458 -217.719 10.7812 -215.469 9.5C-213.219 8.20833 -210.687 7.5625 -207.875 7.5625C-206.021 7.5625 -204.302 7.82292 -202.719 8.34375C-201.125 8.86458 -199.714 9.625 -198.484 10.625C-197.255 11.6146 -196.255 12.8281 -195.484 14.2656C-194.703 15.7031 -194.203 17.349 -193.984 19.2031ZM-182.602 8V40H-189.258V8H-182.602ZM-166.332 40.4688C-168.801 40.4688 -170.926 39.9688 -172.707 38.9688C-174.478 37.9583 -175.842 36.5312 -176.801 34.6875C-177.759 32.8333 -178.238 30.6406 -178.238 28.1094C-178.238 25.6406 -177.759 23.474 -176.801 21.6094C-175.842 19.7448 -174.493 18.2917 -172.754 17.25C-171.004 16.2083 -168.952 15.6875 -166.598 15.6875C-165.014 15.6875 -163.54 15.9427 -162.176 16.4531C-160.801 16.9531 -159.603 17.7083 -158.582 18.7187C-157.551 19.7292 -156.749 21 -156.176 22.5312C-155.603 24.0521 -155.316 25.8333 -155.316 27.875V29.7031H-175.582V25.5781H-161.582C-161.582 24.6198 -161.79 23.7708 -162.207 23.0313C-162.624 22.2917 -163.202 21.7135 -163.941 21.2969C-164.671 20.8698 -165.52 20.6562 -166.488 20.6562C-167.499 20.6562 -168.395 20.8906 -169.176 21.3594C-169.947 21.8177 -170.551 22.4375 -170.988 23.2187C-171.426 23.9896 -171.65 24.849 -171.66 25.7969V29.7187C-171.66 30.9062 -171.441 31.9323 -171.004 32.7969C-170.556 33.6615 -169.926 34.3281 -169.113 34.7969C-168.301 35.2656 -167.337 35.5 -166.223 35.5C-165.483 35.5 -164.806 35.3958 -164.191 35.1875C-163.577 34.9792 -163.051 34.6667 -162.613 34.25C-162.176 33.8333 -161.842 33.3229 -161.613 32.7188L-155.457 33.125C-155.77 34.6042 -156.41 35.8958 -157.379 37C-158.337 38.0937 -159.577 38.9479 -161.098 39.5625C-162.608 40.1667 -164.353 40.4688 -166.332 40.4688ZM-144.129 40.4531C-145.66 40.4531 -147.025 40.1875 -148.223 39.6562C-149.421 39.1146 -150.368 38.3177 -151.066 37.2656C-151.754 36.2031 -152.098 34.8802 -152.098 33.2969C-152.098 31.9635 -151.853 30.8437 -151.363 29.9375C-150.874 29.0313 -150.207 28.3021 -149.363 27.75C-148.52 27.1979 -147.561 26.7812 -146.488 26.5C-145.405 26.2187 -144.27 26.0208 -143.082 25.9062C-141.686 25.7604 -140.561 25.625 -139.707 25.5C-138.853 25.3646 -138.233 25.1667 -137.848 24.9062C-137.462 24.6458 -137.27 24.2604 -137.27 23.75V23.6562C-137.27 22.6667 -137.582 21.901 -138.207 21.3594C-138.822 20.8177 -139.697 20.5469 -140.832 20.5469C-142.03 20.5469 -142.983 20.8125 -143.691 21.3437C-144.4 21.8646 -144.868 22.5208 -145.098 23.3125L-151.254 22.8125C-150.941 21.3542 -150.327 20.0937 -149.41 19.0312C-148.493 17.9583 -147.311 17.1354 -145.863 16.5625C-144.405 15.9792 -142.717 15.6875 -140.801 15.6875C-139.467 15.6875 -138.191 15.8437 -136.973 16.1562C-135.743 16.4687 -134.655 16.9531 -133.707 17.6094C-132.749 18.2656 -131.993 19.1094 -131.441 20.1406C-130.889 21.1615 -130.613 22.3854 -130.613 23.8125V40H-136.926V36.6719H-137.113C-137.499 37.4219 -138.014 38.0833 -138.66 38.6562C-139.306 39.2187 -140.082 39.6615 -140.988 39.9844C-141.895 40.2969 -142.941 40.4531 -144.129 40.4531ZM-142.223 35.8594C-141.243 35.8594 -140.379 35.6667 -139.629 35.2812C-138.879 34.8854 -138.29 34.3542 -137.863 33.6875C-137.436 33.0208 -137.223 32.2656 -137.223 31.4219V28.875C-137.431 29.0104 -137.717 29.1354 -138.082 29.25C-138.436 29.3542 -138.837 29.4531 -139.285 29.5469C-139.733 29.6302 -140.181 29.7083 -140.629 29.7812C-141.077 29.8437 -141.483 29.901 -141.848 29.9531C-142.629 30.0677 -143.311 30.25 -143.895 30.5C-144.478 30.75 -144.931 31.0885 -145.254 31.5156C-145.577 31.9323 -145.738 32.4531 -145.738 33.0781C-145.738 33.9844 -145.41 34.6771 -144.754 35.1562C-144.087 35.625 -143.243 35.8594 -142.223 35.8594ZM-118.793 26.125V40H-125.449V16H-119.105V20.2344H-118.824C-118.293 18.8385 -117.402 17.7344 -116.152 16.9219C-114.902 16.099 -113.387 15.6875 -111.605 15.6875C-109.939 15.6875 -108.486 16.0521 -107.246 16.7812C-106.007 17.5104 -105.043 18.5521 -104.355 19.9062C-103.668 21.25 -103.324 22.8542 -103.324 24.7187V40H-109.98V25.9062C-109.97 24.4375 -110.345 23.2917 -111.105 22.4688C-111.866 21.6354 -112.913 21.2187 -114.246 21.2187C-115.142 21.2187 -115.934 21.4115 -116.621 21.7969C-117.298 22.1823 -117.829 22.7448 -118.215 23.4844C-118.59 24.2135 -118.783 25.0938 -118.793 26.125ZM-87.1406 40.4688C-89.6094 40.4688 -91.7344 39.9688 -93.5156 38.9688C-95.2865 37.9583 -96.651 36.5312 -97.6094 34.6875C-98.5677 32.8333 -99.0469 30.6406 -99.0469 28.1094C-99.0469 25.6406 -98.5677 23.474 -97.6094 21.6094C-96.651 19.7448 -95.3021 18.2917 -93.5625 17.25C-91.8125 16.2083 -89.7604 15.6875 -87.4062 15.6875C-85.8229 15.6875 -84.349 15.9427 -82.9844 16.4531C-81.6094 16.9531 -80.4115 17.7083 -79.3906 18.7187C-78.3594 19.7292 -77.5573 21 -76.9844 22.5312C-76.4115 24.0521 -76.125 25.8333 -76.125 27.875V29.7031H-96.3906V25.5781H-82.3906C-82.3906 24.6198 -82.599 23.7708 -83.0156 23.0313C-83.4323 22.2917 -84.0104 21.7135 -84.75 21.2969C-85.4792 20.8698 -86.3281 20.6562 -87.2969 20.6562C-88.3073 20.6562 -89.2031 20.8906 -89.9844 21.3594C-90.7552 21.8177 -91.3594 22.4375 -91.7969 23.2187C-92.2344 23.9896 -92.4583 24.849 -92.4687 25.7969V29.7187C-92.4687 30.9062 -92.25 31.9323 -91.8125 32.7969C-91.3646 33.6615 -90.7344 34.3281 -89.9219 34.7969C-89.1094 35.2656 -88.1458 35.5 -87.0313 35.5C-86.2917 35.5 -85.6146 35.3958 -85 35.1875C-84.3854 34.9792 -83.8594 34.6667 -83.4219 34.25C-82.9844 33.8333 -82.651 33.3229 -82.4219 32.7188L-76.2656 33.125C-76.5781 34.6042 -77.2187 35.8958 -78.1875 37C-79.1458 38.0937 -80.3854 38.9479 -81.9062 39.5625C-83.4167 40.1667 -85.1615 40.4688 -87.1406 40.4688ZM-71.7812 40V16H-65.3281V20.1875H-65.0781C-64.6406 18.6979 -63.9062 17.5729 -62.875 16.8125C-61.8437 16.0417 -60.6562 15.6562 -59.3125 15.6562C-58.9792 15.6562 -58.6198 15.6771 -58.2344 15.7187C-57.849 15.7604 -57.5104 15.8177 -57.2187 15.8906V21.7969C-57.5312 21.7031 -57.9635 21.6198 -58.5156 21.5469C-59.0677 21.474 -59.5729 21.4375 -60.0312 21.4375C-61.0104 21.4375 -61.8854 21.651 -62.6562 22.0781C-63.4167 22.4948 -64.0208 23.0781 -64.4688 23.8281C-64.9062 24.5781 -65.125 25.4427 -65.125 26.4219V40H-71.7812ZM-33.8086 22.8437L-39.9023 23.2187C-40.0065 22.6979 -40.2305 22.2292 -40.5742 21.8125C-40.918 21.3854 -41.3711 21.0469 -41.9336 20.7969C-42.4857 20.5365 -43.1471 20.4062 -43.918 20.4062C-44.9492 20.4062 -45.819 20.625 -46.5273 21.0625C-47.2357 21.4896 -47.5898 22.0625 -47.5898 22.7812C-47.5898 23.3542 -47.3607 23.8385 -46.9023 24.2344C-46.444 24.6302 -45.6576 24.9479 -44.543 25.1875L-40.1992 26.0625C-37.8659 26.5417 -36.1263 27.3125 -34.9805 28.375C-33.8346 29.4375 -33.2617 30.8333 -33.2617 32.5625C-33.2617 34.1354 -33.7253 35.5156 -34.6523 36.7031C-35.569 37.8906 -36.8294 38.8177 -38.4336 39.4844C-40.0273 40.1406 -41.8659 40.4688 -43.9492 40.4688C-47.1263 40.4688 -49.6576 39.8073 -51.543 38.4844C-53.418 37.151 -54.5169 35.3385 -54.8398 33.0469L-48.293 32.7031C-48.0951 33.6719 -47.6159 34.4115 -46.8555 34.9219C-46.0951 35.4219 -45.1211 35.6719 -43.9336 35.6719C-42.7669 35.6719 -41.8294 35.4479 -41.1211 35C-40.4023 34.5417 -40.0378 33.9531 -40.0273 33.2344C-40.0378 32.6302 -40.293 32.1354 -40.793 31.75C-41.293 31.3542 -42.0638 31.0521 -43.1055 30.8437L-47.2617 30.0156C-49.6055 29.5469 -51.3503 28.7344 -52.4961 27.5781C-53.6315 26.4219 -54.1992 24.9479 -54.1992 23.1562C-54.1992 21.6146 -53.7826 20.2865 -52.9492 19.1719C-52.1055 18.0573 -50.9232 17.1979 -49.4023 16.5937C-47.8711 15.9896 -46.0794 15.6875 -44.0273 15.6875C-40.9961 15.6875 -38.6107 16.3281 -36.8711 17.6094C-35.1211 18.8906 -34.1003 20.6354 -33.8086 22.8437ZM-25.1797 40.4063C-26.2109 40.4063 -27.0964 40.0417 -27.8359 39.3125C-28.5651 38.5729 -28.9297 37.6875 -28.9297 36.6562C-28.9297 35.6354 -28.5651 34.7604 -27.8359 34.0313C-27.0964 33.3021 -26.2109 32.9375 -25.1797 32.9375C-24.1797 32.9375 -23.3047 33.3021 -22.5547 34.0313C-21.8047 34.7604 -21.4297 35.6354 -21.4297 36.6562C-21.4297 37.3437 -21.6068 37.974 -21.9609 38.5469C-22.3047 39.1094 -22.7578 39.5625 -23.3203 39.9062C-23.8828 40.2396 -24.5026 40.4063 -25.1797 40.4063Z" fill="#042B52"/>
</g>
</g>
</g>
<g id="Vector 231" opacity="0.6">
<path d="M43.6425 7.95034C47.1691 13.8545 49.0708 25.6084 32.1448 32.6961C31.9806 32.7648 31.8343 32.8738 31.7257 33.0148C25.4023 41.225 11.1226 53.3343 3.25946 37.6127C6.87683 45.8798 18.2384 57.0556 34.8068 35.8494C34.9015 35.7282 35.0233 35.6265 35.1609 35.5577C41.9193 32.1835 52.5263 22.204 43.6425 7.95034Z" fill="#B1C1E3"/>
<path d="M3.25946 37.6127C1.02597 33.0123 -0.113395 22.7187 12.6748 17.6134C13.1565 17.4211 13.6549 16.9065 13.9123 16.4561C16.4091 12.0867 30.8718 -7.18948 42.9859 6.94175M3.25946 37.6127C11.1226 53.3343 25.4023 41.225 31.7257 33.0148C31.8343 32.8738 31.9806 32.7648 32.1448 32.6961C49.0708 25.6084 47.1691 13.8545 43.6425 7.95034M3.25946 37.6127C6.87683 45.8798 18.2384 57.0556 34.8068 35.8494C34.9015 35.7282 35.0233 35.6265 35.1609 35.5577C41.9193 32.1835 52.5263 22.204 43.6425 7.95034M42.9859 6.94175C43.2156 7.28027 43.4344 7.61648 43.6425 7.95034M42.9859 6.94175C43.2082 7.2548 43.4283 7.59179 43.6425 7.95034" stroke="#8BA3D6" stroke-width="2"/>
</g>
</g>
</g>
</svg>
