<svg width="211" height="28" viewBox="0 0 211 28" fill="none" xmlns="http://www.w3.org/2000/svg">
<g id="Logo 4" clip-path="url(#clip0_142_21288)">
<g id="Group">
<path id="Vector" fill-rule="evenodd" clip-rule="evenodd" d="M102.881 3.17227H96.4609V25.2667H101.062V9.18791L110.798 25.3767H117.001V3.17227H112.508V19.0322L102.881 3.17227ZM136.472 3.17227V7.43737H126.416V20.8928H137.006V25.2667H121.923V3.06348L136.472 3.17227Z" fill="#ECB850" stroke="#ECB850" stroke-width="1.5" stroke-miterlimit="2.613"/>
<path id="Vector_2" fill-rule="evenodd" clip-rule="evenodd" d="M127.234 13.1265H135.471V15.0946H127.234V13.1265Z" fill="#2B3E8A" stroke="#2B3E8A" stroke-width="1.5" stroke-miterlimit="2.613"/>
<path id="Vector_3" fill-rule="evenodd" clip-rule="evenodd" d="M139.145 3.06348V7.21978H145.351V25.2667H150.057V7.32857H156.262V3.17227L139.145 3.06348Z" fill="#ECB850" stroke="#ECB850" stroke-width="1.5" stroke-miterlimit="2.613"/>
<path id="Vector_4" fill-rule="evenodd" clip-rule="evenodd" d="M17.5104 7.10971C15.264 5.14036 14.5148 4.37511 11.8407 4.37511C6.38481 4.37511 2.64004 8.75023 2.64004 14.4382C2.64004 17.1716 3.49677 19.4686 5.31419 21.4392C7.24035 23.1897 9.16531 24.0625 11.7331 24.0625C14.2997 24.0625 16.6537 22.8596 18.2584 20.7815L19.7556 21.8756C18.2584 24.4989 14.5136 25.8131 11.8395 25.8131C5.74196 25.8131 0.5 20.7827 0.5 14.3282C0.5 7.76495 5.74196 2.40576 11.947 2.40576C14.5148 2.40576 17.2965 3.93626 19.2215 5.79681L17.5104 7.10971Z" fill="#2B3E8A" stroke="#2B3E8A" stroke-width="1.5" stroke-miterlimit="2.613"/>
<path id="Vector_5" fill-rule="evenodd" clip-rule="evenodd" d="M26.0688 23.2984H36.0174V25.3766H23.7148V3.06337H26.1751L26.0688 23.2984ZM41.2594 5.0315V12.7977H51.8508V14.6582L41.3669 14.7658V23.406H53.0266V25.3766H39.2269V3.06337L52.5988 3.17216V5.0315H41.2594ZM64.9014 3.06337H67.0414L76.4559 25.3766H73.9945L65.8644 6.12558L57.8408 25.3766H55.2742L64.9014 3.06337ZM81.1626 4.9227H85.12C88.3295 4.9227 90.1481 6.2356 90.1481 9.079C90.1481 13.1265 86.9375 13.1265 83.1939 13.1265L81.1614 13.0165L81.1626 4.9227ZM78.8086 25.3766H81.2701V15.5323H84.6935C89.1862 15.5323 92.7171 13.2353 92.7171 9.079C92.7171 4.70388 89.614 2.62573 84.9073 2.62573H78.8086V25.3766Z" fill="#2B3E8A"/>
<path id="Vector_6" fill-rule="evenodd" clip-rule="evenodd" d="M93.3587 25.3765H90.5782L84.6934 14.9858L86.8334 14.3281L93.3587 25.3765Z" fill="#2B3E8A"/>
<path id="Vector_7" fill-rule="evenodd" clip-rule="evenodd" d="M164.18 0H210.501V28H164.18V0Z" fill="#1C2D6A"/>
</g>
</g>
<defs>
<clipPath id="clip0_142_21288">
<rect width="210" height="28" fill="white" transform="translate(0.5)"/>
</clipPath>
</defs>
</svg>
