<svg width="161" height="28" viewBox="0 0 161 28" fill="none" xmlns="http://www.w3.org/2000/svg">
<g id="Logo 2" clip-path="url(#clip0_142_21260)">
<g id="Group">
<path id="Vector" d="M17.6428 9.19539C17.2034 8.72395 16.7928 8.34051 16.3534 8.07555C15.9431 7.81029 15.3572 7.69211 14.6247 7.69211C13.7163 7.69211 12.9247 7.92784 12.2803 8.37036C11.6356 8.81226 11.0787 9.37234 10.6391 10.0795C10.1889 10.7751 9.83416 11.5285 9.58437 12.3195C9.34012 13.0601 9.15393 13.8188 9.0275 14.5887C8.96875 14.9426 8.93969 15.2666 8.91031 15.6205C8.88094 15.9741 8.85156 16.3277 8.85156 16.6813C8.85156 17.3005 8.91031 17.8898 9.0275 18.4498C9.14469 19.0099 9.32062 19.5404 9.58437 19.9823C9.84253 20.4189 10.2051 20.7836 10.6391 21.0434C11.0787 21.3087 11.6356 21.4265 12.3391 21.4265C13.13 21.4265 13.8334 21.2791 14.4194 20.9843C15.0056 20.6898 15.6209 20.3067 16.295 19.7762L14.7709 26.9968C14.0091 27.3208 13.3059 27.5569 12.6025 27.704C11.8994 27.8517 11.1666 27.9397 10.4047 27.9397C9.17406 27.9397 8.03125 27.7335 6.97625 27.3208C5.92125 26.9085 4.98344 26.2893 4.19219 25.4643C3.40125 24.639 2.78594 23.6074 2.34625 22.3697C1.90625 21.1317 1.67188 19.6583 1.67188 18.0076C1.67188 17.4771 1.70125 16.9466 1.73031 16.4456C1.78906 15.915 1.84781 15.355 1.93562 14.7657C2.22875 12.85 2.6975 11.1701 3.31281 9.75547C3.92844 8.34082 4.63156 7.10281 5.45219 6.10083C6.24312 5.09886 7.09281 4.27352 8.03094 3.65467C8.93938 3.0355 9.84781 2.53452 10.7269 2.18093C11.5407 1.85257 12.3848 1.6058 13.2469 1.44422C14.0381 1.29682 14.7122 1.23773 15.2981 1.23773C15.9137 1.23773 16.4997 1.29682 17.115 1.38545C17.7013 1.47345 18.2578 1.6504 18.7853 1.85689L17.6425 9.19571L17.6428 9.19539ZM19.1959 14.5299C19.4597 12.9679 19.87 11.3763 20.4853 9.78501C21.0762 8.24776 21.8749 6.79978 22.8591 5.48198C23.8553 4.21474 25.0275 3.15368 26.3753 2.35788C27.7234 1.56208 29.3059 1.14941 31.0641 1.14941C32.5294 1.14941 33.76 1.41468 34.7859 1.97476C35.8112 2.53452 36.6319 3.27154 37.2766 4.21474C37.9212 5.15763 38.3609 6.21869 38.6538 7.45671C38.9469 8.66486 39.0934 9.9321 39.0934 11.2289C39.0934 11.789 39.0641 12.3195 39.0347 12.8796C38.9762 13.4393 38.9175 13.9702 38.8297 14.5004C38.5659 16.0624 38.1556 17.654 37.5403 19.2456C36.9494 20.7828 36.1507 22.2306 35.1666 23.5483C34.1703 24.8159 32.9981 25.877 31.6503 26.6724C30.3022 27.4682 28.7197 27.8809 26.9616 27.8809C25.4963 27.8809 24.2362 27.5861 23.2397 27.0559C22.2434 26.4958 21.4231 25.7591 20.7784 24.8159C20.1628 23.8727 19.6941 22.8116 19.4303 21.5739C19.1375 20.3655 18.9909 19.069 18.9909 17.7427C18.9909 17.2118 19.02 16.6813 19.0494 16.1215C19.0494 15.591 19.1078 15.0605 19.1959 14.5299ZM26.2875 14.5299C26.2291 14.8543 26.1997 15.2962 26.1119 15.8563C26.0511 16.4634 26.0217 17.0734 26.0238 17.6836C26.0238 18.155 26.0531 18.5972 26.1119 19.0391C26.1703 19.4814 26.2581 19.8645 26.4047 20.2181C26.5335 20.5354 26.7343 20.818 26.9909 21.0434C27.2547 21.2496 27.5475 21.3674 27.9578 21.3674C28.3975 21.3674 28.7784 21.2496 29.13 20.9843C29.4816 20.7191 29.7747 20.3655 30.0384 19.9528C30.3209 19.5115 30.5473 19.0363 30.7125 18.5385C30.9175 18.0372 31.0641 17.5066 31.2106 17.0056C31.3572 16.5047 31.445 16.0329 31.5328 15.591C31.6209 15.1488 31.6797 14.7952 31.7087 14.5004C31.7675 14.1764 31.8259 13.7341 31.8847 13.1448C31.9725 12.5552 32.0019 11.9659 32.0019 11.3175C32.0019 10.8753 31.9725 10.4039 31.9141 9.99119C31.8553 9.54897 31.7672 9.16585 31.6209 8.81258C31.4922 8.49517 31.2914 8.21243 31.0347 7.98692C30.7709 7.78075 30.4781 7.66288 30.0678 7.66288C29.6281 7.66288 29.2472 7.78075 28.8956 8.04601C28.5441 8.31128 28.2509 8.66517 27.9872 9.07753C27.7047 9.51897 27.4783 9.99421 27.3131 10.4922C27.1081 10.9932 26.9616 11.5237 26.815 12.0247C26.6772 12.4908 26.5599 12.9628 26.4634 13.4393C26.3753 13.9108 26.3166 14.2647 26.2875 14.5299ZM42.7856 27.439L40.8812 1.62117H48.1781V12.2312C48.1488 13.2922 48.1194 14.3238 48.09 15.3553C48.0316 16.3868 48.0022 17.4183 47.9434 18.4794H48.0022C48.3244 17.4183 48.6178 16.3868 48.8522 15.3553C49.1183 14.3035 49.4211 13.2615 49.7603 12.2312L53.3062 1.62117H60.8375L49.8775 27.439H42.7859H42.7856ZM62.3609 1.62117H75.2547L74.3463 7.72166H68.3975L67.8112 11.3172H73.1738L72.2069 17.4183H66.8737L66.2581 21.3674H72.2069L71.2984 27.4682H58.4047L62.3609 1.62117ZM85.7453 27.439L83.5769 16.6813L83.4891 16.7404C83.4303 17.3888 83.3425 18.0076 83.2837 18.6265C83.2246 19.259 83.1366 19.8885 83.02 20.5129L81.9653 27.4095H75.02L79.0056 1.59163H85.7162C87.0641 1.59163 88.295 1.67995 89.4378 1.88612C90.5806 2.09262 91.5475 2.4462 92.3681 2.91796C93.1888 3.41895 93.8334 4.06734 94.2728 4.92191C94.7125 5.77679 94.9469 6.83754 94.9469 8.13433C94.9469 8.45868 94.9175 8.78272 94.8881 9.10707C94.8591 9.43111 94.8006 9.78501 94.7709 10.1386C94.5366 11.5828 94.0384 12.8793 93.2178 14.0289C92.3975 15.2076 91.2838 16.0624 89.7894 16.593L93.3059 27.3504H85.7453V27.439ZM84.5147 13.5867C84.9541 13.5867 85.3938 13.4984 85.7747 13.3215C86.152 13.1447 86.4907 12.8943 86.7709 12.5848C87.0641 12.2899 87.2984 11.9364 87.4741 11.5237C87.6408 11.1347 87.7685 10.73 87.8553 10.3155C87.8847 10.1678 87.8847 10.0503 87.9141 9.9321C87.9141 9.81424 87.9431 9.69638 87.9431 9.57852C87.9431 8.75349 87.7087 8.16419 87.24 7.7512C86.7712 7.36807 86.1556 7.1619 85.3644 7.1619H85.1006L84.075 13.5575L84.5147 13.5867ZM106.962 27.439V24.138H102.302L101.218 27.4682H94.0678L104.207 1.6504H112.676L114.141 27.4682H106.962V27.439ZM106.991 18.656L107.167 12.6731C107.196 11.8773 107.225 11.0523 107.255 10.2565C107.313 9.43111 107.343 8.63532 107.401 7.83952H107.342C107.108 8.63532 106.874 9.46066 106.668 10.2565C106.434 11.0818 106.2 11.8773 105.965 12.6734L104.09 18.656H106.991ZM115.958 27.439L119.943 1.62117H126.888L123.811 21.3382H129.027L128.119 27.4387L115.958 27.439ZM130.024 27.439L134.009 1.62117H140.954L137.878 21.3382H143.094L142.185 27.4387H130.024L130.024 27.439ZM145.174 18.7446C145.35 19.0982 145.584 19.4518 145.848 19.8054C146.112 20.1593 146.434 20.4538 146.757 20.7191C147.108 20.9843 147.46 21.22 147.841 21.3674C148.222 21.5152 148.632 21.6032 149.101 21.6032C149.569 21.6032 150.068 21.4561 150.537 21.1613C151.035 20.8665 151.328 20.4541 151.416 19.8645C151.445 19.7762 151.445 19.6583 151.445 19.481C151.445 19.0982 151.328 18.7446 151.064 18.4203C150.942 18.2331 150.794 18.0644 150.625 17.9193C150.449 17.7719 150.273 17.5949 150.068 17.4479C149.507 16.9416 148.96 16.4207 148.427 15.8858C147.928 15.3553 147.489 14.7952 147.137 14.176C146.874 13.7341 146.698 13.2332 146.551 12.7026C146.405 12.1721 146.346 11.612 146.346 10.9932C146.346 10.5805 146.375 10.1383 146.434 9.66683C146.551 8.90058 146.815 8.04601 147.225 7.07326C147.636 6.10083 148.192 5.15763 148.954 4.30306C149.687 3.44817 150.625 2.71147 151.709 2.09262C152.823 1.47345 154.112 1.17896 155.577 1.17896C156.427 1.17896 157.247 1.29682 158.068 1.53254C158.854 1.75675 159.611 2.07322 160.324 2.47543L159.152 10.3155C159.005 9.99119 158.8 9.66715 158.537 9.3428C158.273 9.01876 158.009 8.72363 157.687 8.45868C157.365 8.19342 157.013 7.98724 156.661 7.81029C156.28 7.63334 155.899 7.54502 155.489 7.54502C155.079 7.54502 154.668 7.69243 154.229 7.95769C153.789 8.22296 153.526 8.60609 153.438 9.1363V9.3428C153.438 9.78501 153.584 10.1977 153.907 10.5805C154.053 10.787 154.229 10.9639 154.434 11.1406C154.639 11.3175 154.815 11.4649 154.991 11.6416C155.636 12.1721 156.222 12.6731 156.72 13.1741C157.218 13.6754 157.599 14.2059 157.892 14.7952C158.128 15.2108 158.305 15.6571 158.419 16.1215C158.537 16.593 158.595 17.1235 158.595 17.7131C158.595 18.2433 158.537 18.7739 158.448 19.2752C158.278 20.4526 157.901 21.5902 157.335 22.635C156.785 23.658 156.072 24.5837 155.225 25.3757C154.375 26.1715 153.438 26.7906 152.353 27.2325C151.269 27.6747 150.126 27.9105 148.925 27.9105C147.167 27.9105 145.467 27.5569 143.884 26.8494L145.174 18.7446Z" fill="#DCE1E2"/>
</g>
<g id="Group_2">
<path id="Vector_2" d="M16.5294 8.13436C16.0897 7.66291 15.6794 7.27947 15.24 7.01452C14.8297 6.74925 14.2434 6.63108 13.5109 6.63108C12.6025 6.63108 11.8112 6.86711 11.1666 7.30933C10.5219 7.75123 9.9653 8.3113 9.52592 9.01878C9.07559 9.7142 8.72062 10.4676 8.47061 11.2585C8.22647 11.9991 8.04037 12.7578 7.91405 13.5277C7.8553 13.8816 7.82592 14.2059 7.79655 14.5595C7.76749 14.9131 7.73811 15.2667 7.73811 15.6206C7.73811 16.2394 7.79655 16.8287 7.91405 17.3888C8.03124 17.9489 8.20686 18.4794 8.47061 18.9213C8.72886 19.3579 9.09152 19.7226 9.52561 19.9824C9.9653 20.2476 10.5219 20.3658 11.2253 20.3658C12.0166 20.3658 12.7197 20.2181 13.3059 19.9233C13.8919 19.6288 14.5072 19.2457 15.1812 18.7151L13.6575 25.9358C12.8956 26.2601 12.1922 26.4958 11.4887 26.6429C10.7856 26.7906 10.0531 26.8787 9.29124 26.8787C8.0603 26.8787 6.91749 26.6725 5.86249 26.2601C4.8078 25.8475 3.86999 25.2286 3.07874 24.4033C2.28749 23.5779 1.67217 22.5464 1.23249 21.3087C0.822487 20.0415 0.587799 18.5677 0.587799 16.9174C0.587799 16.3868 0.617174 15.8563 0.646549 15.3553C0.704987 14.8248 0.763737 14.2647 0.851549 13.6754C1.14467 11.7594 1.61342 10.0798 2.22905 8.66489C2.84436 7.25056 3.5478 6.01223 4.36811 5.01025C5.15936 4.00828 6.00905 3.18294 6.94686 2.56409C7.8553 1.94524 8.76374 1.44425 9.6428 1.09067C10.4567 0.762179 11.3009 0.515307 12.1631 0.353645C12.9541 0.20624 13.6281 0.147781 14.2144 0.147781C14.8297 0.147781 15.4156 0.206554 16.0312 0.295186C16.6172 0.383503 17.1741 0.560451 17.7016 0.76663L16.5294 8.13436ZM18.0825 13.4689C18.3462 11.9069 18.7566 10.3156 19.3719 8.72398C19.9626 7.18674 20.7613 5.73877 21.7453 4.42095C22.7419 3.15371 23.9141 2.09264 25.2619 1.29685C26.61 0.50105 28.1922 0.0883789 29.9506 0.0883789C31.4156 0.0883789 32.6466 0.353645 33.6722 0.91372C34.6978 1.4738 35.5184 2.21051 36.1628 3.15371C36.8078 4.0966 37.2472 5.15766 37.5403 6.39567C37.8334 7.60382 37.98 8.87138 37.98 10.1682C37.98 10.7279 37.9506 11.2588 37.9212 11.8182C37.8625 12.3786 37.8041 12.9088 37.7162 13.4394C37.4525 15.0014 37.0422 16.593 36.4269 18.1846C35.836 19.7217 35.0372 21.1696 34.0531 22.4873C33.0569 23.7549 31.8844 24.8159 30.5366 25.6114C29.1887 26.4075 27.6062 26.8199 25.8481 26.8199C24.3825 26.8199 23.1228 26.5254 22.1262 25.9949C21.13 25.4348 20.3094 24.6981 19.6647 23.7549C19.0494 22.812 18.5803 21.7506 18.3169 20.5129C18.0237 19.3044 17.8772 18.008 17.8772 16.6816C17.8772 16.1511 17.9066 15.6206 17.9359 15.0605C17.9359 14.53 17.9944 13.9994 18.0825 13.4689ZM25.1741 13.4689C25.1153 13.7933 25.0859 14.2352 24.9981 14.7952C24.9375 15.4024 24.9082 16.0123 24.9103 16.6225C24.9103 17.094 24.9397 17.5362 24.9981 17.9781C25.0569 18.4203 25.1447 18.8034 25.2912 19.157C25.42 19.4743 25.6206 19.7569 25.8772 19.9824C26.1409 20.1885 26.4341 20.3067 26.8444 20.3067C27.2837 20.3067 27.6647 20.1885 28.0162 19.9233C28.3681 19.6583 28.6612 19.3044 28.925 18.8918C29.2073 18.4504 29.4337 17.9753 29.5987 17.4774C29.8041 16.9761 29.9506 16.4456 30.0972 15.9446C30.2434 15.4436 30.3316 14.9722 30.4194 14.53C30.5072 14.0878 30.5659 13.7342 30.5953 13.4394C30.6537 13.1153 30.7125 12.6731 30.7709 12.0838C30.8591 11.4942 30.8881 10.9049 30.8881 10.2565C30.8881 9.81427 30.8591 9.34282 30.8006 8.93015C30.7419 8.48825 30.6537 8.10513 30.5072 7.75154C30.3785 7.43428 30.1778 7.15165 29.9212 6.9262C29.6575 6.71971 29.3644 6.60185 28.9541 6.60185C28.5147 6.60185 28.1337 6.71971 27.7822 6.98529C27.4303 7.25024 27.1375 7.60382 26.8737 8.0165C26.5913 8.45793 26.3648 8.93317 26.1997 9.43114C25.9944 9.93213 25.8481 10.4627 25.7016 10.964C25.5636 11.43 25.4462 11.9019 25.3497 12.3783C25.2622 12.8501 25.2034 13.2036 25.1741 13.4689ZM41.6719 26.378L39.7675 0.560137H47.0644V11.1701L46.9762 14.2942C46.9175 15.3258 46.8881 16.3573 46.8294 17.4183H46.8881C47.2106 16.3573 47.5037 15.3258 47.7381 14.2942C48.0043 13.2424 48.3073 12.2004 48.6466 11.1701L52.1922 0.560137H59.6941L48.7347 26.378H41.6722H41.6719ZM61.2472 0.560137H74.1409L73.2325 6.66062H67.2837L66.6978 10.2565H72.0312L71.064 16.3573H65.7306L65.1156 20.3067H71.0644L70.1559 26.4072H57.2622L61.2472 0.560137ZM84.6319 26.378L82.4631 15.6206L82.3756 15.6793C82.3169 16.3277 82.2287 16.9466 82.1703 17.5658C82.1112 18.1982 82.0232 18.8275 81.9066 19.4518L80.8516 26.3484H73.9066L77.8628 0.560137H84.5731C85.9212 0.560137 87.1519 0.648454 88.295 0.854633C89.4378 1.06113 90.4047 1.41471 91.2253 1.88615C92.0459 2.38745 92.6906 3.03585 93.13 3.89042C93.5697 4.7453 93.8041 5.80605 93.8041 7.10284C93.8041 7.42719 93.7747 7.75123 93.7453 8.07558C93.7162 8.39962 93.6575 8.75352 93.6281 9.1071C93.3937 10.5513 92.8956 11.8478 92.075 12.9975C91.2547 14.1761 90.1409 15.031 88.6466 15.5615L92.1631 26.3189H84.6319V26.378ZM83.4012 12.5257C83.8406 12.5257 84.2803 12.4377 84.6612 12.2607C85.0386 12.0839 85.3773 11.8334 85.6575 11.5237C85.9506 11.2289 86.185 10.8753 86.3606 10.4627C86.5273 10.0737 86.655 9.66897 86.7419 9.25451C86.7709 9.10679 86.7709 8.98924 86.8003 8.87107C86.8003 8.75352 86.8297 8.63534 86.8297 8.51748C86.8297 7.69246 86.5953 7.10315 86.1266 6.69017C85.6575 6.30704 85.0422 6.10086 84.2509 6.10086H83.9872L82.9909 12.4669L83.4012 12.5257ZM105.848 26.378V23.0769H101.189L100.104 26.4075H92.9544L103.093 0.589367H111.562L113.027 26.4075H105.848V26.378ZM105.877 17.595L106.053 11.6124C106.082 10.8166 106.112 9.99122 106.141 9.19542C106.2 8.37039 106.229 7.57459 106.288 6.77848H106.229C105.995 7.57459 105.76 8.39962 105.555 9.19542C105.321 10.0208 105.086 10.8166 104.852 11.6124L102.976 17.595H105.877ZM114.844 26.378L118.83 0.560137H125.775L122.698 20.2772H127.914L127.006 26.3777L114.844 26.378ZM128.91 26.378L132.896 0.560137H139.841L136.764 20.2772H141.98L141.072 26.3777L128.91 26.378ZM144.06 17.6836C144.236 18.0372 144.471 18.3908 144.734 18.7447C144.998 19.0983 145.321 19.3931 145.643 19.6583C145.994 19.9233 146.346 20.1593 146.727 20.3067C147.108 20.4538 147.518 20.5424 147.987 20.5424C148.456 20.5424 148.954 20.3947 149.423 20.1002C149.921 19.8054 150.214 19.3931 150.302 18.8034C150.332 18.7151 150.332 18.5973 150.332 18.4203C150.332 18.0372 150.214 17.6836 149.95 17.3593C149.828 17.172 149.68 17.0033 149.511 16.8583C149.335 16.7109 149.159 16.5342 148.954 16.3868C148.394 15.8805 147.847 15.3597 147.313 14.8248C146.815 14.2942 146.375 13.7342 146.024 13.115C145.76 12.6731 145.584 12.1721 145.438 11.6416C145.291 11.1111 145.232 10.551 145.232 9.93213C145.232 9.51977 145.262 9.07756 145.321 8.6058C145.438 7.83986 145.702 6.98498 146.112 6.01254C146.522 5.0398 147.079 4.0966 147.841 3.24202C148.573 2.38714 149.511 1.65043 150.595 1.03158C151.709 0.412418 152.998 0.117923 154.463 0.117923C155.313 0.117923 156.134 0.235784 156.954 0.471506C157.74 0.695812 158.498 1.01239 159.211 1.41471L157.98 9.25451C157.833 8.93015 157.628 8.60611 157.364 8.28176C157.101 7.95772 156.837 7.66291 156.514 7.39765C156.193 7.13238 155.841 6.9262 155.489 6.74925C155.108 6.57231 154.727 6.48399 154.317 6.48399C153.907 6.48399 153.496 6.63139 153.057 6.89666C152.617 7.16192 152.354 7.54505 152.266 8.07527V8.28176C152.266 8.72398 152.412 9.13665 152.734 9.51977C152.881 9.72595 153.057 9.9029 153.262 10.0795C153.467 10.2565 153.643 10.4039 153.819 10.5805C154.463 11.1111 155.049 11.6124 155.548 12.1133C156.046 12.6143 156.427 13.1449 156.72 13.7342C156.955 14.1498 157.133 14.5961 157.247 15.0605C157.364 15.5319 157.423 16.0625 157.423 16.6521C157.423 17.1826 157.364 17.7132 157.277 18.2141C157.106 19.3916 156.729 20.5292 156.163 21.574C155.613 22.5969 154.9 23.5227 154.053 24.3146C153.203 25.1107 152.266 25.7296 151.181 26.1715C150.097 26.6137 148.954 26.8494 147.753 26.8494C145.994 26.8494 144.295 26.4958 142.712 25.7884L144.06 17.6836Z" fill="#394A56"/>
</g>
</g>
<defs>
<clipPath id="clip0_142_21260">
<rect width="160" height="28" fill="white" transform="translate(0.5)"/>
</clipPath>
</defs>
</svg>
