<svg width="110" height="28" viewBox="0 0 110 28" fill="none" xmlns="http://www.w3.org/2000/svg">
<g id="Logo 1" clip-path="url(#clip0_142_21248)">
<g id="Group 1000007820">
<path id="Vector" d="M9.49825 0.581543V18.5038C9.49825 21.1893 9.46158 22.9237 9.40657 23.6883C9.35156 24.4343 9.09485 25.1617 8.65478 25.7771C8.2147 26.3925 7.57293 26.8401 6.85781 27.0639C6.10602 27.3064 4.95083 27.4183 3.4289 27.4183H0V22.7372C0.421737 22.7745 0.733456 22.7745 0.91682 22.7745C1.33856 22.7932 1.76029 22.6626 2.09035 22.4202C2.36539 22.1964 2.54876 21.8793 2.58543 21.525C2.64044 20.835 2.65878 20.1636 2.65878 19.4736V0.581543H9.49825Z" fill="#001689"/>
<path id="Vector_2" d="M23.7088 0.581543L27.6511 27.4183H20.6466L20.2799 22.6067H17.7678L17.3827 27.4183H10.3049L13.7888 0.581543H23.7088ZM20.0965 17.851C19.7665 14.7925 19.4181 11.0253 19.033 6.5494C18.3362 11.6967 17.9145 15.4639 17.7311 17.851H20.0965Z" fill="#001689"/>
<path id="Vector_3" d="M44.0433 0.581543V27.4183H38.029L34.4534 15.2214V27.4183H28.7324V0.581543H34.4534L38.3223 12.6665V0.581543H44.0433Z" fill="#001689"/>
<path id="Vector_4" d="M57.209 0.581543H64.1218C65.9921 0.581543 67.4224 0.730741 68.4309 1.02913C69.4394 1.32753 70.1911 1.75647 70.7046 2.31596C71.218 2.89409 71.5664 3.60278 71.7314 4.36741C71.9148 5.16934 72.0064 6.40021 72.0064 8.09732V10.4285C72.0064 12.1443 71.8414 13.3938 71.493 14.1771C71.1446 14.9604 70.5029 15.5571 69.5677 15.9861C68.6326 16.415 67.4224 16.6202 65.9188 16.6202H64.0851V27.4183H57.2273L57.209 0.581543ZM64.0668 5.18799V12.0137C64.2685 12.0324 64.4335 12.0324 64.5802 12.0324C65.2037 12.0324 65.6437 11.8832 65.9004 11.5661C66.1388 11.2491 66.2672 10.5964 66.2672 9.60793V7.40728C66.2672 6.49345 66.1205 5.89667 65.8454 5.61692C65.5704 5.31853 64.9836 5.16934 64.0668 5.18799Z" fill="#001689"/>
<path id="Vector_5" d="M73.3828 0.581543H78.2236C81.4692 0.581543 83.6512 0.712091 84.8064 0.973185C85.9432 1.23428 86.9517 1.92431 87.6118 2.91274C88.327 3.97576 88.6937 5.63558 88.6937 7.91082C88.6937 9.99957 88.437 11.4169 87.9236 12.1256C87.4101 12.8343 86.4016 13.2819 84.9164 13.4311C86.2733 13.7668 87.1901 14.233 87.6485 14.8112C88.0519 15.2587 88.3453 15.7996 88.5287 16.3964C88.6387 16.8813 88.6937 18.2054 88.6937 20.3687V27.4369H82.331V18.5224C82.331 17.0864 82.221 16.2099 82.0009 15.8555C81.7809 15.5012 81.1941 15.352 80.2406 15.352V27.4369H73.3828V0.581543ZM80.2406 5.18799V11.1558C81.0107 11.1558 81.5608 11.0439 81.8726 10.8388C82.1843 10.615 82.3493 9.92497 82.3493 8.75005V7.27673C82.3493 6.4375 82.2026 5.87802 81.8909 5.59827C81.5792 5.31853 81.0291 5.18799 80.2406 5.18799Z" fill="#001689"/>
<path id="Vector_6" d="M106.204 16.3032C106.204 19.0074 106.13 20.9097 106.02 22.0286C105.763 24.3412 104.297 26.3367 102.188 27.2505C100.941 27.7727 99.6208 28.0338 98.2822 27.9965C96.9803 28.0151 95.6784 27.7727 94.4682 27.2878C92.3229 26.4113 90.8193 24.4344 90.5259 22.1032C90.3976 21.0029 90.3242 19.0634 90.3242 16.3032V11.6968C90.3242 8.99259 90.3792 7.09034 90.5076 5.97136C90.7643 3.65882 92.2312 1.64467 94.3399 0.749488C95.5868 0.227301 96.907 -0.0337932 98.2639 0.00350595C99.5658 -0.0151436 100.868 0.227301 102.078 0.71219C104.223 1.58872 105.727 3.56557 106.02 5.89677C106.149 6.99709 106.222 8.93664 106.222 11.6968L106.204 16.3032ZM99.3457 7.46333C99.3457 6.21381 99.2724 5.41188 99.144 5.05754C99.0157 4.70319 98.6673 4.49805 98.3005 4.53535C97.9705 4.5167 97.6588 4.68454 97.4754 4.96429C97.2737 5.24403 97.182 6.08326 97.182 7.46333V20.0145C97.182 21.581 97.237 22.5508 97.3654 22.9052C97.4938 23.2782 97.7871 23.446 98.2272 23.446C98.6306 23.4833 99.0157 23.2222 99.1257 22.8119C99.2724 22.383 99.3274 21.3946 99.3274 19.8093L99.3457 7.46333Z" fill="#001689"/>
<path id="Vector_7" d="M109.542 2.78229C110.165 3.43502 110.147 4.46075 109.523 5.09483C109.212 5.41188 108.808 5.57972 108.368 5.57972C107.47 5.56107 106.755 4.83374 106.736 3.91991C106.736 3.47232 106.92 3.04338 107.231 2.74499C107.525 2.42794 107.947 2.2601 108.368 2.27875C108.827 2.27875 109.248 2.4466 109.542 2.78229ZM107.415 2.91283C107.158 3.17393 107.011 3.54692 106.993 3.91991C106.993 4.68454 107.598 5.31863 108.35 5.33727C108.717 5.33727 109.083 5.18808 109.358 4.92699C109.615 4.66589 109.78 4.3302 109.78 3.95721C109.799 3.17393 109.193 2.53984 108.423 2.52119C108.405 2.52119 108.405 2.52119 108.387 2.52119C108.038 2.50254 107.69 2.65174 107.415 2.91283ZM108.442 2.96878C108.955 2.96878 109.212 3.15528 109.212 3.47232C109.23 3.73341 109.047 3.95721 108.79 3.97586L109.212 4.81509H108.772L108.405 4.05046H108.13V4.81509H107.745V2.96878H108.442ZM108.13 3.80801H108.387C108.68 3.80801 108.808 3.73342 108.808 3.52827C108.808 3.32313 108.662 3.22988 108.368 3.22988H108.13V3.80801Z" fill="#001689"/>
<path id="Vector_8" d="M50.5899 22.9799C55.4711 22.9799 59.4281 18.9553 59.4281 13.9908C59.4281 9.02626 55.4711 5.00171 50.5899 5.00171C45.7088 5.00171 41.7518 9.02626 41.7518 13.9908C41.7518 18.9553 45.7088 22.9799 50.5899 22.9799Z" fill="#80BC00"/>
<path id="Vector_9" d="M48.7753 16.1167V10.8388C48.7753 10.3912 48.7386 9.85041 49.5821 9.85041H56.5132C57.6318 9.83176 57.9985 10.2793 57.9985 11.7154C57.9985 13.1514 57.6318 13.599 56.7516 13.599C55.8715 13.5803 52.1675 13.599 52.1675 13.599C52.0025 13.6176 51.8558 13.7482 51.8558 13.9347C51.8558 14.2331 52.0392 14.2704 52.2959 14.289C52.5526 14.3077 55.1013 14.289 55.1013 14.289C55.6148 14.289 56.3849 14.6247 56.3849 15.7996C56.3849 16.527 56.0365 17.3102 55.1013 17.3102C54.1295 17.3102 50.4622 17.3102 50.4622 17.3102V16.1167H54.5879C54.5879 16.1167 55.028 16.1353 55.028 15.781C55.028 15.4266 54.5146 15.4826 54.5146 15.4826L51.8741 15.4453C51.8741 15.4453 50.4806 15.5012 50.4806 13.8974C50.4806 12.3121 51.9292 12.4054 52.4976 12.4054H56.0732C56.4216 12.424 56.7149 12.163 56.7333 11.8086C56.7333 11.79 56.7333 11.7527 56.7333 11.734C56.7333 11.0253 55.9448 11.0253 55.9448 11.0253H50.4439C50.2422 11.044 50.0955 11.2118 50.0955 11.417V17.3289H44.2829C44.2829 17.3289 42.7793 17.1983 42.7793 15.4826C42.7793 14.0466 43.7695 13.6922 43.7695 13.6922L44.4662 14.8671C44.2095 14.9604 44.0445 15.2215 44.0445 15.5012C44.0628 15.8183 44.2829 16.0794 44.5946 16.154L48.7753 16.1167Z" fill="white"/>
<path id="Vector_10" d="M52.1111 15.0351C51.5244 15.0351 51.0293 14.5502 51.0293 13.9347V13.8974C51.0293 13.282 51.506 12.7971 52.1111 12.7971H54.5315C54.6232 12.7971 54.7149 12.8717 54.7149 12.965C54.7149 13.0582 54.6416 13.1515 54.5499 13.1515H52.1111C51.7261 13.1515 51.4144 13.4685 51.4144 13.8601V13.9534C51.4144 14.345 51.7261 14.6621 52.1111 14.6621H54.5499C54.6416 14.6621 54.7332 14.7367 54.7332 14.8486C54.7332 14.9418 54.6599 15.0351 54.5499 15.0351H52.1111Z" fill="#80BC00"/>
</g>
</g>
<defs>
<clipPath id="clip0_142_21248">
<rect width="110" height="28" fill="white"/>
</clipPath>
</defs>
</svg>
