<svg width="70" height="28" viewBox="0 0 70 28" fill="none" xmlns="http://www.w3.org/2000/svg">
<g id="Logo 3" clip-path="url(#clip0_142_21265)">
<path id="Vector" d="M34.1641 0.169922L41.6979 27.8924L69.7787 19.3361L34.1641 0.169922Z" fill="#FFF453" stroke="#FFF453" stroke-width="1.56"/>
<g id="Group">
<path id="Vector_2" d="M5.04978 9.62027C5.04978 11.1483 3.94231 12.6051 2.00725 12.6051C1.06771 12.6051 0.00195312 12.2267 0.00195312 11.8482C0.00195312 11.4983 0.156714 10.7414 0.282937 10.138C0.353182 9.82979 0.394891 9.63343 0.59136 9.63343C0.759291 9.63343 0.815268 9.77384 0.815268 10.1095V10.7117C0.815268 11.665 1.17967 12.2958 1.99298 12.2958C3.07301 12.2958 3.70413 11.4829 3.70413 10.4594C3.70413 8.73612 1.46065 7.71265 1.46065 5.82039C1.46065 4.3351 2.76459 3.38184 4.1256 3.38184C5.06514 3.38184 6.14517 3.70434 6.14517 3.95664C6.14517 4.20895 6.06066 4.39104 5.73797 5.75018C5.68199 5.9608 5.62601 6.01674 5.49979 6.01674C5.3593 6.01674 5.27588 5.9608 5.27588 5.42767C5.27588 4.04001 4.89721 3.69008 4.13987 3.69008C3.46705 3.69008 2.66691 4.22321 2.66691 5.18963C2.66691 6.3952 5.05087 8.07684 5.05087 9.61807L5.04978 9.62027Z" fill="#00ABBC"/>
<path id="Vector_3" d="M8.92098 9.34059C8.27011 9.56437 7.3635 9.6631 7.09569 9.69052C7.01886 9.70478 7.00678 9.90114 6.98044 10.4474C6.98044 11.3579 7.28667 11.8208 7.78497 11.8208C8.34694 11.8208 8.85732 11.3579 9.24038 10.7974C9.71235 10.1249 9.67393 9.97025 9.80235 9.97025C9.87918 9.97025 9.94284 10.0119 9.94284 10.1107C9.94284 10.3772 8.97257 12.6052 7.30094 12.6052C6.29225 12.6194 5.67979 11.6376 5.67979 10.4606C5.67979 8.14819 7.40301 5.82153 9.24038 5.82153C10.1591 5.82153 10.631 6.43803 10.631 7.22345C10.631 8.35881 9.87808 9.01699 8.92098 9.3395V9.34059ZM9.06147 6.18682C8.73 6.18682 8.38536 6.35466 7.98913 7.04136C7.54241 7.82569 7.24935 8.6528 7.10886 9.32633C9.07464 9.11572 9.53344 7.85421 9.53344 6.80332C9.53344 6.39634 9.31611 6.18682 9.06147 6.18682Z" fill="#00ABBC"/>
<path id="Vector_4" d="M12.9744 9.24187C13.7471 7.56022 14.6098 5.82263 15.5647 5.82263C15.883 5.82263 16.0948 6.01899 16.0948 6.55101C16.0948 7.26623 15.7162 7.95293 15.2168 7.95293C14.9292 7.95293 14.7931 7.7851 14.7931 7.56022C14.7931 7.39239 14.8535 7.22345 14.8535 7.08414C14.8535 6.98651 14.8227 6.97225 14.747 6.97225C14.308 6.97225 12.7779 10.2796 12.1117 12.1433C12.0513 12.3112 12.0513 12.3814 11.7934 12.3814H11.0514C10.9307 12.3814 10.8846 12.3671 10.8846 12.3112C10.8846 12.1291 12.52 7.39129 12.52 6.85926C12.52 6.76163 12.4893 6.71885 12.3993 6.71885C12.2478 6.71885 11.9898 7.05562 11.7484 7.41981C11.3247 8.05056 11.2336 8.17671 11.1732 8.17671C11.0975 8.17671 11.0371 8.13503 11.0371 8.02204C11.0371 7.784 12.1128 5.82153 13.1577 5.82153C13.521 5.82153 13.6725 5.97621 13.6725 6.31188C13.6725 6.92837 13.2784 8.06373 12.9459 9.21334L12.9766 9.24187H12.9744Z" fill="#00ABBC"/>
<path id="Vector_5" d="M17.3274 12.6061C16.6546 12.6061 16.3736 12.2134 16.3736 11.5125C16.3736 10.251 17.8038 7.13996 17.8038 6.85914C17.8038 6.70447 17.7621 6.60684 17.649 6.60684C17.4943 6.60684 17.1441 6.98529 16.85 7.378C16.3594 8.00876 16.3736 8.23254 16.2331 8.23254C16.1486 8.23254 16.1212 8.16233 16.1212 8.0647C16.1212 7.93855 17.2155 5.82251 18.3789 5.82251C18.8278 5.82251 19.01 6.14502 19.01 6.59368C19.01 7.44821 17.4394 10.5877 17.4394 11.5695C17.4394 11.8218 17.5799 12.0182 17.8598 12.0182C19.066 12.0182 20.8046 9.1869 20.8046 7.82776C20.8046 7.40762 20.3842 7.26721 20.3842 6.59477C20.3842 6.07591 20.6927 5.82361 21.0011 5.82361C21.3095 5.82361 21.5345 6.01996 21.5345 6.74835C21.5345 8.65487 19.5007 12.6072 17.3274 12.6072V12.6061Z" fill="#00ABBC"/>
<path id="Vector_6" d="M23.2871 7.58873C23.3847 7.28048 23.4835 7.02818 23.4835 6.88777C23.4835 6.79014 23.4275 6.71993 23.343 6.71993C23.2025 6.71993 23.0203 6.8746 22.6845 7.35068C22.2213 7.9957 22.2213 8.23374 22.0676 8.23374C21.9831 8.23374 21.9414 8.19206 21.9414 8.09333C21.9414 7.71488 23.1049 5.82261 24.1706 5.82261C24.4648 5.82261 24.6898 5.99045 24.6898 6.42485C24.6898 7.18175 23.1477 10.9794 23.1477 11.54C23.1477 11.6519 23.1894 11.7078 23.2596 11.7078C23.3716 11.7078 23.5966 11.6102 24.0872 10.8248C24.5636 10.0536 24.5778 9.88577 24.6766 9.88577C24.7611 9.88577 24.8028 9.92745 24.8028 9.99766C24.8028 10.2916 23.6394 12.604 22.4606 12.604C22.1796 12.604 21.9974 12.4077 21.9974 11.9733C21.9974 11.6508 22.1379 11.0485 22.3058 10.5297L23.2871 7.58653V7.58873ZM24.9422 3.24365C25.2089 3.24365 25.3911 3.48169 25.3911 3.95887C25.3911 4.58963 24.9982 5.06571 24.6064 5.06571C24.2837 5.06571 24.1015 4.78489 24.1015 4.46348C24.1015 3.81846 24.5218 3.24365 24.9433 3.24365H24.9422Z" fill="#00ABBC"/>
<path id="Vector_7" d="M29.0689 5.82251C30.0073 5.82251 30.4157 6.29859 30.4157 6.88766C30.4157 7.41969 30.116 7.75646 29.6539 7.75646C29.3543 7.75646 29.1095 7.53268 29.1095 7.0555C29.1095 6.46643 28.9734 6.1867 28.6474 6.1867C27.6684 6.1867 26.5796 8.87755 26.5796 10.5175C26.5796 11.4006 26.9736 11.8207 27.5455 11.8207C27.9131 11.8207 28.3346 11.5969 28.7155 11.19C29.3817 10.4747 29.3817 9.91418 29.5859 9.91418C29.6945 9.91418 29.7351 9.98439 29.7351 10.0546C29.7351 10.5033 28.7418 12.605 27.001 12.605C25.8991 12.605 25.2734 11.7362 25.2734 10.3069C25.2734 8.28848 26.9604 5.82251 29.0689 5.82251Z" fill="#00ABBC"/>
<path id="Vector_8" d="M33.4443 9.34059C32.7934 9.56437 31.8868 9.6631 31.619 9.69052C31.5422 9.70478 31.5301 9.90114 31.5038 10.4474C31.5038 11.3579 31.81 11.8208 32.3083 11.8208C32.8703 11.8208 33.3807 11.3579 33.7637 10.7974C34.2357 10.1249 34.1973 9.97025 34.3257 9.97025C34.4025 9.97025 34.4662 10.0119 34.4662 10.1107C34.4662 10.3772 33.4959 12.6052 31.8243 12.6052C30.8156 12.6194 30.2031 11.6376 30.2031 10.4606C30.2031 8.14819 31.9263 5.82153 33.7637 5.82153C34.6824 5.82153 35.1544 6.43803 35.1544 7.22345C35.1544 8.35881 34.4014 9.01699 33.4443 9.3395V9.34059ZM33.5848 6.18682C33.2533 6.18682 32.9087 6.35466 32.5125 7.04136C32.0657 7.82569 31.7727 8.6528 31.6322 9.32633C33.598 9.11572 34.0568 7.85421 34.0568 6.80332C34.0568 6.39634 33.8394 6.18682 33.5848 6.18682Z" fill="#00ABBC"/>
<path id="Vector_9" d="M42.2727 5.74358C42.2298 5.7008 42.1673 5.69531 42.1168 5.69531C42.0498 5.69531 41.9818 5.7008 41.8973 5.70738L41.7656 5.71725C41.6306 5.72603 41.4056 5.73809 41.0016 5.73809H40.781C40.6493 5.73809 40.5955 5.83682 40.3958 6.2043C40.3156 6.35349 40.2048 6.55643 40.0533 6.8208C40.0533 6.8208 38.5112 9.53798 38.1084 10.2477V5.90593C38.1084 5.85547 38.1029 5.80282 38.0656 5.76442C38.0239 5.72274 37.9613 5.71725 37.8987 5.71725C37.8581 5.71725 37.7824 5.71725 37.7067 5.72822C37.6705 5.72822 37.632 5.73042 37.5903 5.73261C37.5431 5.7359 37.4948 5.73809 37.4465 5.73809C37.3225 5.73809 37.1469 5.72822 36.9768 5.71725L36.9351 5.71506C36.7726 5.70519 36.619 5.69641 36.5103 5.69641C36.2831 5.69641 36.2589 5.83572 36.2589 5.89606C36.2589 6.06609 36.3863 6.10777 36.6727 6.13739C36.8692 6.16043 36.8692 6.2054 36.8692 6.25367C36.8692 6.32387 36.6815 6.86687 36.4455 7.55467C36.1152 8.51451 35.6169 9.9647 35.0626 11.733C34.989 11.9524 34.8727 11.9864 34.5928 12.0478L34.55 12.0577C34.3107 12.1126 34.2383 12.129 34.2383 12.2979C34.2383 12.3583 34.2558 12.4054 34.2888 12.4383C34.3107 12.4603 34.3502 12.4866 34.4161 12.4866C34.5401 12.4866 34.6663 12.4756 34.7893 12.4658C34.91 12.4559 35.034 12.4449 35.1526 12.4449C35.3864 12.4449 35.5488 12.4581 35.6915 12.4702C35.7969 12.4789 35.8869 12.4866 35.9835 12.4866C36.08 12.4866 36.1459 12.4658 36.1876 12.4241C36.2194 12.3923 36.2359 12.3495 36.2359 12.2979C36.2359 12.0939 36.0844 12.0753 35.855 12.0467C35.6212 12.016 35.5839 11.9623 35.5839 11.8043C35.5839 11.3644 36.1777 9.56101 37.0788 6.97328V12.1301C37.0788 12.2409 37.0942 12.3012 37.1326 12.3396C37.1699 12.3769 37.2182 12.3824 37.2567 12.3824C37.3895 12.3824 37.4542 12.2639 37.8735 11.4917C38.2741 10.7545 39.0073 9.40415 40.4276 6.99302L39.2784 11.5476C39.2027 11.8701 39.0743 11.9875 38.7285 12.0478C38.5738 12.0753 38.3828 12.1093 38.3828 12.299C38.3828 12.3451 38.4014 12.389 38.4344 12.4219C38.464 12.4526 38.5222 12.4877 38.6243 12.4877C38.6857 12.4877 38.7516 12.4833 38.8416 12.4767C39.0205 12.4647 39.2905 12.446 39.7811 12.446C40.151 12.446 40.3486 12.4647 40.4781 12.4767C40.5439 12.4833 40.5955 12.4877 40.6427 12.4877C40.7437 12.4877 40.8008 12.4526 40.8304 12.423C40.8655 12.3879 40.8842 12.3418 40.8842 12.2892C40.8842 12.1433 40.7272 12.1038 40.511 12.05C40.3354 12.0083 40.3167 11.9667 40.3167 11.8789C40.3167 11.642 41.1059 8.4443 41.4429 7.07968L41.5987 6.44783C41.647 6.25696 41.759 6.15275 41.8435 6.13739C42.1695 6.08144 42.3155 6.02989 42.3155 5.87631C42.3155 5.83901 42.3111 5.78526 42.2716 5.74577L42.2727 5.74358Z" fill="#00ABBC"/>
<path id="Vector_10" d="M46.7051 12.0676L46.637 12.049C46.5207 12.0128 46.4087 11.9788 46.4087 11.71C46.4087 11.2142 46.3978 9.94171 46.3868 8.71092L46.367 5.96961C46.367 5.78532 46.3429 5.68659 46.2858 5.62845C46.2331 5.5758 46.164 5.57031 46.1157 5.57031C45.9291 5.57031 45.8907 5.57031 43.0018 10.2149C42.7867 10.5615 42.6199 10.8434 42.4849 11.0705C42.0063 11.8768 41.9328 12.0007 41.5124 12.0468C41.4004 12.061 41.3203 12.1576 41.3203 12.2771C41.3203 12.3375 41.3401 12.389 41.3774 12.4263C41.4169 12.4658 41.474 12.4867 41.5409 12.4867C41.7056 12.4867 41.8724 12.4757 42.0337 12.4658C42.1929 12.456 42.3575 12.445 42.5189 12.445C43.0172 12.445 43.2049 12.4658 43.3168 12.4779C43.3629 12.4834 43.397 12.4867 43.4332 12.4867C43.5616 12.4867 43.6351 12.468 43.6801 12.423C43.7229 12.3803 43.7273 12.3254 43.7273 12.2881C43.7273 12.0972 43.5638 12.0676 43.4551 12.0479C42.9074 11.947 42.8328 11.8208 42.8328 11.71C42.8328 11.4325 43.2455 10.7436 43.4924 10.3311C43.5594 10.2192 43.6165 10.1238 43.6582 10.0481H45.3166C45.3166 10.1085 45.3188 10.1809 45.321 10.2818C45.3265 10.567 45.3375 11.0431 45.3375 11.699C45.3375 11.868 45.3166 11.9524 44.8403 12.0479C44.7086 12.0742 44.5582 12.1258 44.5582 12.298C44.5582 12.3485 44.5725 12.3879 44.6032 12.4187C44.6504 12.4658 44.7316 12.4867 44.8732 12.4867C44.8974 12.4867 44.9237 12.4845 44.9621 12.4801C45.0675 12.4691 45.287 12.445 45.8523 12.445C46.2298 12.445 46.4098 12.4636 46.5295 12.4757C46.5888 12.4823 46.6359 12.4867 46.6842 12.4867C46.7819 12.4867 46.8555 12.4625 46.9038 12.4132C46.9378 12.3792 46.9564 12.3342 46.9564 12.287C46.9564 12.1367 46.8719 12.1137 46.7051 12.0665V12.0676ZM45.3166 9.56545H43.9337C44.3738 8.83926 44.8128 8.14269 45.3166 7.35069V9.56545Z" fill="#00ABBC"/>
<path id="Vector_11" d="M52.1325 5.94218C51.9372 5.74692 51.2138 5.57031 50.6135 5.57031C49.6004 5.57031 48.5522 6.27785 48.5522 7.46257C48.5522 8.2107 49.0022 8.77783 49.4368 9.32522C49.8473 9.84299 50.2359 10.3322 50.2359 10.9421C50.2359 11.7287 49.7453 12.2563 49.0154 12.2563C48.7926 12.2563 48.6115 12.1883 48.4775 12.0556C48.2921 11.8702 48.1944 11.551 48.1944 11.1308V10.6789C48.1944 10.4814 48.1691 10.375 48.1077 10.3136C48.0714 10.2774 48.0231 10.2587 47.9639 10.2587C47.7685 10.2587 47.7268 10.443 47.673 10.6767L47.6708 10.6855C47.5676 11.1758 47.459 11.7199 47.459 11.9821C47.459 12.0523 47.493 12.1214 47.5589 12.1872C47.797 12.4252 48.4413 12.6117 49.0252 12.6117C49.6948 12.6117 50.2754 12.3847 50.7046 11.9557C51.1271 11.5334 51.3697 10.9334 51.3697 10.3103C51.3697 9.68722 50.867 9.03233 50.3797 8.41035C49.9692 7.886 49.5806 7.39018 49.5806 6.98759C49.5806 6.61682 49.7442 6.37658 49.8803 6.23946C50.0767 6.0431 50.3544 5.92463 50.6222 5.92463C50.8725 5.92463 51.0371 5.97729 51.1546 6.09466C51.3302 6.27018 51.4114 6.61023 51.4114 7.1664C51.4114 7.42857 51.4367 7.55582 51.5014 7.62054C51.5453 7.66442 51.6002 7.671 51.643 7.671C51.7879 7.671 51.8406 7.58105 51.8823 7.42528C51.8823 7.42308 52.0842 6.60475 52.0842 6.60475C52.1633 6.29431 52.1896 6.1901 52.1896 6.06285C52.1896 6.02116 52.1698 5.98058 52.1314 5.94109L52.1325 5.94218Z" fill="#00ABBC"/>
<path id="Vector_12" d="M61.5277 5.74261C61.4948 5.7097 61.4465 5.69653 61.3664 5.69653C60.9833 5.69653 60.5794 5.7086 60.1875 5.71957C59.8539 5.72944 59.5378 5.73822 59.2842 5.73822C59.0307 5.73822 58.6871 5.72396 58.4051 5.71189C58.202 5.70311 58.0264 5.69653 57.9375 5.69653C57.6631 5.69653 57.6335 5.83585 57.6335 5.89618C57.6335 6.08486 57.853 6.11886 57.9704 6.13642C58.1471 6.16165 58.2009 6.18249 58.2009 6.26366C58.2009 6.52803 57.1845 10.0131 56.6467 11.8176C56.5984 11.9767 56.4667 12.0238 56.2681 12.0469L56.2395 12.0501C56.0727 12.0688 55.8652 12.0929 55.8652 12.2981C55.8652 12.3397 55.8817 12.3781 55.9124 12.41C55.964 12.4615 56.0507 12.4867 56.1693 12.4867C56.2132 12.4867 56.2681 12.4845 56.3515 12.4802C56.5885 12.4692 57.0825 12.4451 58.1987 12.4451C59.315 12.4451 59.7035 12.4703 59.8561 12.4813C59.9033 12.4845 59.9351 12.4867 59.9658 12.4867C60.1085 12.4867 60.1458 12.3386 60.2369 11.9821C60.2644 11.8757 60.2984 11.7419 60.3412 11.5894C60.3412 11.5905 60.3599 11.5291 60.3599 11.5291C60.5004 11.0651 60.6178 10.6713 60.6178 10.5528C60.6178 10.51 60.6013 10.4694 60.5706 10.4387C60.5465 10.4146 60.5015 10.385 60.429 10.385C60.2578 10.385 60.1875 10.5692 60.0986 10.8018C59.9164 11.2801 59.6409 12.0041 58.3249 12.0041C58.1153 12.0041 57.9068 12.0008 57.8716 11.9657C57.865 11.9591 57.8618 11.9426 57.8618 11.9097C57.8618 11.6881 58.4885 9.49093 58.6026 9.12345H59.2513C59.4456 9.12345 59.5498 9.14429 59.5992 9.19475C59.6355 9.23095 59.6519 9.29348 59.6519 9.39769C59.6519 9.54688 59.6388 9.67412 59.6267 9.78492C59.6179 9.86609 59.6102 9.9363 59.6102 9.99663C59.6102 10.1107 59.6333 10.1886 59.6794 10.2358C59.709 10.2654 59.7463 10.2807 59.788 10.2807C59.9922 10.2807 60.0295 10.0822 60.0866 9.78163C60.0997 9.71252 60.1151 9.63354 60.1327 9.54797C60.2797 8.87224 60.4356 8.44882 60.5289 8.19651C60.586 8.04075 60.6178 7.95518 60.6178 7.89485C60.6178 7.84 60.6002 7.79283 60.5673 7.75992C60.5388 7.7314 60.5015 7.71604 60.4609 7.71604C60.2545 7.71604 60.1865 7.90033 60.1217 8.07914C60.0251 8.34241 59.9153 8.64188 59.3885 8.64188H58.7234C58.9275 7.89265 59.225 6.9021 59.4653 6.18029H60.0932C60.4082 6.18029 60.5673 6.21101 60.6441 6.2878C60.7122 6.35581 60.7254 6.47318 60.7254 6.66406V7.45277C60.7254 7.5142 60.7506 7.55369 60.7726 7.57454C60.8011 7.60306 60.8417 7.62061 60.8823 7.62061C60.9822 7.62061 61.0634 7.56137 61.081 7.47581C61.0953 7.41218 61.1622 7.21034 61.2401 6.97669C61.4245 6.41943 61.5661 5.98284 61.5661 5.8545C61.5661 5.82378 61.5617 5.77771 61.5277 5.7437V5.74261Z" fill="#00ABBC"/>
<path id="Vector_13" d="M66.7816 7.08297C66.7816 6.63102 66.6642 6.28329 66.4315 6.05073C66.1955 5.81488 65.8388 5.69531 65.3723 5.69531C65.1078 5.69531 64.8378 5.70628 64.5755 5.71616C64.3153 5.72603 64.0453 5.737 63.7841 5.737C63.5064 5.737 63.2649 5.72164 63.0696 5.70957C62.9433 5.70189 62.8347 5.69531 62.7535 5.69531C62.6415 5.69531 62.5756 5.78088 62.5756 5.86315C62.5756 6.00575 62.737 6.03866 62.8797 6.06718C63.0772 6.10667 63.2068 6.14397 63.2068 6.28438C63.2068 6.45002 63.1069 6.76814 62.8116 7.71482C62.5658 8.50244 62.1948 9.69155 61.6317 11.586C61.5132 11.9974 61.444 12.005 61.1532 12.0402L61.106 12.0456C60.9479 12.0632 60.6834 12.0928 60.6834 12.3078C60.6834 12.3528 60.6999 12.3923 60.7306 12.4241C60.7591 12.4526 60.814 12.4866 60.9139 12.4866C60.9589 12.4866 61.0105 12.4822 61.0829 12.4767C61.2322 12.4647 61.4814 12.4449 61.9347 12.4449C62.58 12.4449 62.8511 12.468 62.9971 12.48C63.0487 12.4844 63.0827 12.4866 63.1124 12.4866C63.1771 12.4866 63.2166 12.4603 63.2397 12.4373C63.2726 12.4043 63.2913 12.3583 63.2913 12.3078C63.2913 12.1773 63.1629 12.0742 62.9642 12.0456C62.8182 12.0237 62.7447 11.9623 62.7447 11.8657C62.7447 11.7802 62.7974 11.5696 62.8369 11.4193C62.8369 11.4215 63.2891 9.87584 63.2891 9.87584C63.3659 9.60599 63.3966 9.60599 63.5448 9.60599C63.7193 9.60599 63.7797 9.62573 63.873 10.0404L64.3779 12.186C64.424 12.3517 64.4734 12.4866 64.6172 12.4866C64.7039 12.4866 64.8027 12.4745 64.8982 12.4636C64.9794 12.4537 65.0551 12.4449 65.1111 12.4449C65.2307 12.4449 65.3526 12.4559 65.4711 12.4658C65.5885 12.4756 65.7093 12.4866 65.8267 12.4866C65.9233 12.4866 65.987 12.4789 66.0287 12.4373C66.0638 12.4021 66.0682 12.355 66.0682 12.3188C66.0682 12.2014 65.9288 12.1773 65.7927 12.1531C65.7104 12.1389 65.616 12.1224 65.5677 12.0884C65.4996 12.0358 65.4546 11.8592 65.3646 11.507L65.3394 11.4094C65.3394 11.4094 64.8872 9.68497 64.8872 9.68607C64.84 9.49739 64.784 9.40195 64.7072 9.34052C65.0869 9.23412 65.4294 9.11016 65.8629 8.79533C66.2822 8.48709 66.7827 7.9397 66.7827 7.08407L66.7816 7.08297ZM64.4317 6.06828C64.5162 6.0595 64.6314 6.05183 64.8049 6.05183C65.0946 6.05183 65.3108 6.12093 65.4469 6.25696C65.5809 6.39079 65.6467 6.59592 65.6467 6.88332C65.6467 7.98577 64.8685 9.16501 63.7106 9.16501H63.4998L64.4317 6.06828Z" fill="#00ABBC"/>
<path id="Vector_14" d="M61.7305 23.4849C61.7305 22.9419 62.1706 22.5415 62.692 22.5415C63.2133 22.5415 63.648 22.9419 63.648 23.4849C63.648 24.0279 63.2079 24.4327 62.692 24.4327C62.1761 24.4327 61.7305 24.0323 61.7305 23.4849ZM62.692 24.2758C63.1201 24.2758 63.4581 23.9401 63.4581 23.4849C63.4581 23.0297 63.1201 22.6995 62.692 22.6995C62.2639 22.6995 61.9215 23.0373 61.9215 23.4849C61.9215 23.9325 62.2595 24.2758 62.692 24.2758ZM62.4922 24.0334H62.3276V22.943H62.7436C63.0015 22.943 63.1288 23.0384 63.1288 23.2534C63.1288 23.4487 63.0059 23.5332 62.8457 23.554L63.1563 24.0345H62.9708L62.6832 23.5617H62.4933V24.0345L62.4922 24.0334ZM62.6898 23.4202C62.8303 23.4202 62.9554 23.4103 62.9554 23.2425C62.9554 23.1075 62.8325 23.0823 62.7172 23.0823H62.4922V23.4202H62.6898Z" fill="#00ABBC"/>
<path id="Vector_15" d="M53.3021 12.444C52.8883 12.444 52.7204 12.4626 52.5645 12.4747C52.4822 12.4813 52.4174 12.4857 52.3571 12.4857C52.2155 12.4857 52.1419 12.4637 52.12 12.4133C52.1057 12.3815 52.1277 12.3442 52.1419 12.2871C52.1705 12.173 52.2188 12.0787 52.4471 12.0469L52.4745 12.0436C52.6468 12.0217 52.7226 12.0019 52.7796 11.8988C52.9421 11.607 53.503 9.56446 53.9552 7.92231L54.4469 6.15181C54.3931 6.14413 54.3305 6.13645 54.1889 6.13645C53.9365 6.13645 53.6972 6.14523 53.5381 6.24725C53.4722 6.29003 53.4173 6.35036 53.3723 6.43154C53.312 6.54014 53.2 6.80779 53.1012 7.04364C53.0079 7.26523 52.9289 7.4572 52.885 7.53508C52.8477 7.602 52.8005 7.65465 52.7467 7.68975C52.7006 7.71937 52.6534 7.73473 52.6073 7.73473C52.4976 7.73473 52.4822 7.60529 52.5601 7.35079L52.6424 6.99976C52.7665 6.44251 52.8674 6.00591 52.9388 5.87757C52.9564 5.84685 52.9849 5.80078 53.0387 5.76678C53.0892 5.73387 53.1451 5.7207 53.2253 5.7207C53.6083 5.7207 54.0057 5.73277 54.3909 5.74374H55.764C56.1558 5.73277 56.5608 5.7207 56.9428 5.7207C57.0229 5.7207 57.0712 5.73496 57.1042 5.76678C57.1382 5.80078 57.1426 5.84685 57.1426 5.87757C57.1426 6.00591 56.9988 6.44251 56.8122 6.99976L56.6991 7.35079C56.6344 7.60529 56.5466 7.73473 56.4368 7.73473C56.3907 7.73473 56.3512 7.71937 56.3227 7.68975C56.2875 7.65465 56.27 7.60309 56.27 7.53508C56.27 7.4572 56.2974 7.26632 56.3282 7.04364C56.3611 6.80779 56.3995 6.53904 56.3995 6.43154C56.3995 6.35036 56.3797 6.29003 56.3369 6.24725C56.2349 6.14523 56 6.13645 55.7475 6.13645C55.6059 6.13645 55.5401 6.14303 55.4808 6.15181L54.9847 7.92231C54.5193 9.56337 53.9409 11.607 53.9398 11.8988C53.9398 12.0019 54.0046 12.0217 54.1637 12.0436L54.19 12.0469C54.3152 12.0633 54.549 12.0952 54.549 12.2871C54.549 12.3387 54.5325 12.3815 54.5007 12.4133C54.4502 12.4637 54.3646 12.4857 54.223 12.4857C54.1626 12.4857 54.1011 12.4802 54.0221 12.4747C53.8728 12.4626 53.7159 12.444 53.3021 12.444Z" fill="#00ABBC"/>
</g>
<g id="Group 1000007821">
<path id="Vector_16" d="M45.628 14.1064C45.8532 14.1064 46.5012 14.1064 46.5012 14.3817C46.5012 14.5488 46.2559 15.4715 46.2169 15.6755C46.1288 16.0945 46.1187 16.1424 45.9916 16.1424C45.8834 16.1424 45.8444 16.0588 45.8444 15.9151C45.8444 15.7836 45.9224 15.1238 45.9224 14.98C45.9224 14.8117 45.9224 14.4886 45.4808 14.4886C43.8324 14.4886 41.6731 16.3697 41.6731 19.149C41.6731 20.3593 42.184 21.6641 43.2724 21.6641C44.3609 21.6641 44.9309 20.4182 45.1473 19.8555C45.2065 19.6995 45.2656 19.6282 45.3436 19.6282C45.4418 19.6282 45.4619 19.7117 45.4619 19.7842C45.4619 19.8567 45.4518 19.9157 45.3247 20.4072C45.2467 20.6947 45.1574 21.0547 45.1284 21.3656C45.0995 21.6777 44.0488 21.9762 43.1856 21.9762C40.9773 21.9762 40.4375 19.9882 40.4375 18.9696C40.4375 16.4299 43.0975 14.1064 45.6292 14.1064H45.628Z" fill="#00ABBC" stroke="#00ABBC" stroke-width="0.25"/>
<path id="Vector_17" d="M47.5795 19.2216C47.4813 19.5804 47.1579 20.7304 47.1579 20.9946C47.1579 21.0782 47.1869 21.1629 47.2662 21.1629C47.5115 21.1629 48.0715 20.3237 48.2086 20.0608C48.2376 20.0129 48.2577 19.9773 48.2967 19.9773C48.3458 19.9773 48.4049 20.0252 48.4049 20.0964C48.4049 20.4564 47.3354 21.9419 46.6483 21.9419C46.3438 21.9419 46.1777 21.6901 46.1777 21.2711C46.1777 20.8521 46.4231 19.8581 46.5414 19.4624L47.6701 15.4618C47.7393 15.2099 47.7682 15.0785 47.7682 14.958C47.7682 14.6951 47.5027 14.6705 47.4637 14.6705C47.1303 14.6582 47.0913 14.6582 47.0913 14.5391C47.0913 14.3351 47.2586 14.3351 47.5329 14.3351C47.6701 14.3351 48.1017 14.3351 48.6226 14.0722C48.8088 13.9886 48.829 13.9763 48.8579 13.9763C48.8969 13.9763 48.985 14.0119 48.985 14.1078C48.985 14.1557 48.9749 14.168 48.946 14.2872L47.582 19.2228L47.5795 19.2216Z" fill="#00ABBC" stroke="#00ABBC" stroke-width="0.25"/>
<path id="Vector_18" d="M50.0028 19.5803C49.9826 19.7953 49.9826 19.8801 49.9826 19.9513C49.9826 21.126 50.6206 21.2329 50.8068 21.2329C50.983 21.2329 51.4649 21.1972 52.0827 20.4661C52.2991 20.2032 52.318 20.1786 52.3671 20.1786C52.4262 20.1786 52.4451 20.2388 52.4451 20.299C52.4451 20.503 51.4737 21.9283 50.4042 21.9283C49.668 21.9283 48.9219 21.2697 48.9219 19.9513C48.9219 17.6033 50.7867 16.2861 51.8374 16.2861C52.3872 16.2861 53.0642 16.7051 53.0642 17.5443C53.0642 18.8381 51.5819 19.2338 51.1793 19.3173L50.0015 19.5803H50.0028ZM52.1519 17.2322C52.1519 17.1241 52.1519 16.5614 51.6813 16.5614C50.9553 16.5614 50.2783 17.8908 50.0418 19.2571C50.7187 19.1613 52.1519 18.8381 52.1519 17.2322Z" fill="#00ABBC" stroke="#00ABBC" stroke-width="0.25"/>
<path id="Vector_19" d="M58.3054 16.2862C58.3746 16.2862 58.5118 16.2862 58.5118 16.4177C58.5118 16.5135 57.3441 20.4429 57.3441 20.9577C57.3441 21.0535 57.3642 21.1617 57.4422 21.1617C57.6775 21.1617 58.2072 20.3114 58.3155 20.0595C58.3545 19.9883 58.3935 19.9514 58.4337 19.9514C58.4828 19.9514 58.5218 19.9993 58.5218 20.0595C58.5218 20.3593 57.5894 21.9284 56.7162 21.9284C56.6079 21.9284 56.3236 21.9284 56.3236 21.4258C56.3236 21.126 56.4997 20.4318 56.5891 20.1197L56.7854 19.4009C56.8055 19.3407 56.8546 19.1491 56.8634 19.1011L56.8432 19.0778C56.8042 19.1613 56.7061 19.3297 56.618 19.4611C55.9209 20.5633 55.0477 21.9407 54.1442 21.9407C53.5943 21.9407 53.3301 21.3656 53.3301 20.6948C53.3301 18.4069 55.4302 16.4066 56.7552 16.4066C57.0395 16.4066 57.2459 16.4902 57.3441 16.5627C57.3441 16.5627 57.4711 16.6462 57.5013 16.6462C57.5403 16.6462 57.5794 16.5381 57.5894 16.4902C57.6385 16.3231 57.6976 16.2751 57.982 16.2751L58.3054 16.2874V16.2862ZM54.7331 21.1015C55.4692 21.1015 57.3629 18.1305 57.3629 17.2077C57.3629 16.7285 56.9313 16.6929 56.813 16.6929C55.517 16.6929 54.3493 19.3764 54.3493 20.4785C54.3493 20.6346 54.3493 21.1015 54.7318 21.1015H54.7331Z" fill="#00ABBC" stroke="#00ABBC" stroke-width="0.25"/>
<path id="Vector_20" d="M60.7598 19.3407C61.3978 18.0591 62.3013 16.2861 63.4979 16.2861C63.625 16.2861 64.2051 16.2861 64.2051 17.0283C64.2051 17.387 64.078 17.8785 63.7924 18.7411C63.5369 19.5434 63.2135 20.5386 63.2135 20.9097C63.2135 21.0289 63.2626 21.1247 63.3318 21.1247C63.479 21.1247 63.8616 20.7057 64.1371 20.2266C64.2843 19.987 64.2944 19.9513 64.3535 19.9513C64.4026 19.9513 64.4517 20.0226 64.4517 20.0951C64.4517 20.3347 63.4992 21.9406 62.6259 21.9406C62.2434 21.9406 62.1842 21.6408 62.1842 21.3656C62.1842 20.6713 63.2639 17.5566 63.2639 17.161C63.2639 16.8857 63.1066 16.8489 63.0386 16.8489C62.3227 16.8489 60.9285 19.0409 60.2616 21.341C60.1345 21.7845 60.0653 21.7845 59.4663 21.7845C59.3782 21.7845 59.231 21.7845 59.231 21.6285C59.231 21.5327 60.3597 17.8908 60.3597 17.2077C60.3597 17.0516 60.2817 17.0406 60.2616 17.0406C60.0451 17.0406 59.3493 18.1304 59.27 18.1304C59.231 18.1304 59.1719 18.0591 59.1719 17.9866C59.1719 17.8073 60.0841 16.2972 60.9486 16.2972C61.1059 16.2972 61.2921 16.3574 61.2921 16.8845C61.2921 17.376 61.0266 18.3221 60.8706 18.8615L60.7435 19.3161L60.7636 19.3407H60.7598Z" fill="#00ABBC" stroke="#00ABBC" stroke-width="0.25"/>
</g>
</g>
<defs>
<clipPath id="clip0_142_21265">
<rect width="70" height="28" fill="white"/>
</clipPath>
</defs>
</svg>
