<svg width="56" height="28" viewBox="0 0 56 28" fill="none" xmlns="http://www.w3.org/2000/svg">
<g id="Logo 5" clip-path="url(#clip0_142_21297)">
<path id="Vector" d="M15.125 8.31358C15.125 8.31358 21.5705 -0.210673 33.8597 -6.70401e-05C33.8597 -6.70401e-05 23.1767 3.12216 21.3002 8.28726L15.125 8.31358Z" fill="#2E3192"/>
<path id="Vector_2" d="M22.009 8.32954H28.0771C28.0771 8.32954 29.4845 3.45929 34.6144 0.526611C33.2325 0.631914 23.4878 4.02266 22.0039 8.32954H22.009Z" fill="#2E3192"/>
<path id="Vector_3" d="M28.6582 8.30322H35.119V0.368652C35.119 0.368652 28.8469 5.71277 28.6582 8.30322Z" fill="#2E3192"/>
<path id="Vector_4" d="M54.0678 8.3294C54.0678 8.3294 48.117 -0.200122 36.7559 0.0157482C36.7559 0.0157482 46.628 3.13797 48.3618 8.30307L54.0678 8.3294Z" fill="#2E3192"/>
<path id="Vector_5" d="M46.9077 8.30313H41.8798C41.8798 8.30313 40.9313 3.73299 36.3828 0.315918C37.6576 0.426486 45.536 4.00151 46.9077 8.30313Z" fill="#2E3192"/>
<path id="Vector_6" d="M35.6543 0.66333V8.30304H40.9422C40.9422 8.30304 41.2533 4.6701 35.6543 0.66333Z" fill="#2E3192"/>
<path id="Vector_7" d="M15.4201 19.4546H21.8299C21.8299 19.4546 24.043 25.6569 32.9871 27.9315C32.9871 27.9315 22.2327 29.3109 15.4252 19.4546H15.4201Z" fill="#ED1C24"/>
<path id="Vector_8" d="M22.509 19.5232L27.5828 19.539C27.5828 19.539 28.6383 24.0986 33.4724 27.4525C33.4724 27.4525 26.5833 26.1731 22.5039 19.5232H22.509Z" fill="#ED1C24"/>
<path id="Vector_9" d="M28.2148 19.6284H33.6863L33.6455 26.8153C33.6455 26.8153 29.7905 24.3776 28.2199 19.6284H28.2148Z" fill="#ED1C24"/>
<path id="Vector_10" d="M34.2625 19.5811L40.4938 19.5969C40.4938 19.5969 37.5413 25.3622 34.084 26.8575L34.2676 19.5863L34.2625 19.5811Z" fill="#ED1C24"/>
<path id="Vector_11" d="M41.0799 19.6284H47.6325C47.6325 19.6284 44.8177 25.3464 34.1348 27.5525C34.1348 27.5525 39.4329 24.3302 41.0799 19.6284Z" fill="#ED1C24"/>
<path id="Vector_12" d="M34.4862 27.9894C34.4862 27.9894 48.6826 28.4527 54.0266 19.681L48.5041 19.6021C48.5041 19.6021 46.9182 24.9093 34.4862 27.9894Z" fill="#ED1C24"/>
<g id="Group">
<path id="Vector_13" d="M0.745151 10.725C0.592174 9.56671 1.65282 8.95068 3.43246 8.95068C4.5135 8.95068 5.1611 9.14549 5.1917 9.37189C5.1917 9.40875 5.13561 9.69833 5.06932 10.109C5.00303 10.5302 5.02852 10.7356 4.73787 10.7356C4.54409 10.7356 4.5084 10.6408 4.45741 10.4355C4.26873 9.67201 4.04947 9.26659 3.33047 9.26659C2.72366 9.26659 2.35652 9.61409 2.40751 10.0353C2.4738 10.5302 2.72876 10.7092 3.56504 11.4253C4.04437 11.836 4.65118 12.3888 4.73277 12.9838C4.88574 14.121 3.89139 15.0951 1.86189 15.0951C1.04601 15.0951 0.0567521 14.8687 0.0210573 14.5896C-0.0146374 14.3211 0.0210573 13.9631 0.0414544 13.3681C0.0414544 13.1996 0.123042 13.1628 0.270921 13.1628C0.490189 13.1628 0.520784 13.226 0.663563 13.6367C0.938923 14.4317 1.17349 14.7213 1.92818 14.7213C2.68287 14.7213 3.1571 14.2737 3.08571 13.742C2.94293 12.6521 0.908327 11.9202 0.750251 10.725H0.745151Z" fill="#2E3192"/>
<path id="Vector_14" d="M10.9687 9.10345C11.5551 9.10345 11.4225 8.68224 11.8254 8.68224C11.9324 8.68224 12.0089 8.7033 12.0242 8.81387C12.0344 8.89811 11.9477 9.06659 11.5959 10.3618C11.5041 10.6777 11.5041 10.783 11.2848 10.783C11.1523 10.783 11.0605 10.7356 11.0452 10.6145C11.0095 10.3513 11.1115 10.0196 11.0707 9.71947C11.0503 9.55099 10.9024 9.47727 10.5149 9.47727C9.88255 9.47727 9.87235 9.4878 9.83666 9.59837L8.65873 13.9316C8.61283 14.1159 8.55674 14.2738 8.57204 14.3791C8.59244 14.5213 8.70972 14.595 8.89329 14.6108C9.33693 14.6582 9.43891 14.674 9.45421 14.8003C9.46951 14.932 9.42872 14.9899 9.19925 14.9899C8.8831 14.9899 8.49045 14.953 7.63888 14.953C6.60373 14.953 6.32837 14.9899 5.93063 14.9899C5.74705 14.9899 5.65527 14.932 5.63997 14.8109C5.62977 14.7371 5.67566 14.6213 5.92043 14.616C6.64452 14.5897 6.60883 14.4844 6.74651 13.9632C7.88364 9.87216 7.95503 9.66682 7.93973 9.56678C7.92954 9.49307 7.86834 9.48254 7.5165 9.48254C6.28758 9.48254 6.42016 10.6777 5.96122 10.6777C5.79295 10.6777 5.70626 10.6672 5.69096 10.5566C5.68076 10.4619 5.79295 10.2091 6.28758 8.70857C6.32327 8.61379 6.38956 8.56641 6.54764 8.56641C6.68022 8.56641 6.772 8.59273 6.7822 8.6875C6.7924 8.75069 6.73121 8.84546 6.74651 8.96656C6.75671 9.06133 6.86379 9.10871 7.06776 9.10871H10.9738L10.9687 9.10345Z" fill="#2E3192"/>
<path id="Vector_15" d="M14.3401 11.6255H14.8755C15.569 11.6255 15.7933 11.3991 15.8851 11.1569C15.9922 10.8673 15.9922 10.7568 16.2574 10.7568C16.39 10.7568 16.497 10.8147 16.5123 10.941C16.5327 11.099 16.1758 11.8835 16.1401 12.8102C16.1248 12.9786 16.0789 13.0787 15.8851 13.0787C15.6557 13.0787 15.6149 12.9839 15.5945 12.8154C15.5792 12.6838 15.5945 12.5153 15.5639 12.2942C15.5384 12.1099 15.3395 11.9941 14.8551 11.9941H14.2942C13.8709 13.7684 13.7282 14.0685 13.7689 14.3581C13.7944 14.5371 13.9474 14.6108 14.386 14.6108C16.5633 14.6108 16.237 13.2366 16.6755 13.2366C16.8438 13.2366 16.9509 13.2998 16.9662 13.3946C16.9815 13.5052 16.9203 13.6736 16.6602 14.853C16.6347 14.9478 16.6398 14.9847 15.8749 14.9847C15.2426 14.9847 14.8704 14.9478 13.9831 14.9478C11.7955 14.9478 11.5559 14.9847 11.3009 14.9847C11.0816 14.9847 11.0153 14.9373 11.0001 14.8267C10.9848 14.7056 11.051 14.6582 11.408 14.6108C11.7547 14.5635 11.8261 14.5477 11.9383 14.0317C12.6828 10.8199 12.9123 9.80904 12.897 9.67214C12.8715 9.47733 12.6879 9.4668 12.3565 9.44048C12.2188 9.42995 12.178 9.38256 12.1627 9.27199C12.1423 9.12457 12.28 9.06665 12.6828 9.06665C13.1315 9.06665 13.6262 9.10351 14.2432 9.10351C15.4823 9.10351 16.0891 9.06665 17.0223 9.06665C17.3129 9.06665 17.4608 9.08771 17.4761 9.17722C17.4914 9.30885 17.3792 9.56157 17.3078 9.92487C17.216 10.4198 17.2262 10.683 16.9356 10.683C16.3492 10.683 17.0172 9.44048 15.6149 9.44048H15.1763C14.8347 9.44048 14.8092 9.51419 14.7531 9.74585L14.3452 11.6255H14.3401Z" fill="#2E3192"/>
<path id="Vector_16" d="M22.7489 14.1263C22.7999 14.5106 22.9886 14.5738 23.1925 14.6107C23.3914 14.6475 23.5648 14.6475 23.5801 14.7792C23.6005 14.9371 23.4985 14.9845 23.1313 14.9845C22.9733 14.9845 22.7132 14.9477 22.1268 14.9477C20.9948 14.9477 20.7092 14.9845 20.4797 14.9845C20.2962 14.9845 20.2044 14.9371 20.1942 14.8634C20.1738 14.7055 20.3624 14.6475 20.7806 14.6107C20.9846 14.5896 21.0356 14.4264 21.0203 14.3106L20.8622 13.1154C20.8469 13.0048 20.8163 12.9469 20.6429 12.9469H19.1947C18.8786 12.9469 18.8378 13.0048 18.7154 13.1891C18.3329 13.7841 18.1647 14.0684 18.1902 14.279C18.2208 14.4949 18.4502 14.6002 18.6848 14.6054C18.8429 14.6159 19.0009 14.6265 19.0162 14.737C19.0366 14.895 18.9398 14.9792 18.7103 14.9792C18.6134 14.9792 18.2565 14.9424 17.7669 14.9424C16.8287 14.9424 16.5686 14.9792 16.4921 14.9792C16.4156 14.9792 16.3544 14.9424 16.3442 14.8739C16.3187 14.6949 16.4972 14.6423 16.6859 14.6002C16.8746 14.5633 17.1142 14.5159 17.2162 14.3738C18.2004 13.068 20.6735 9.69831 21.1681 9.10861C21.2293 9.0349 21.2854 8.99805 21.6016 8.99805C22.0044 8.99805 22.0707 9.0349 22.086 9.14547L22.7438 14.1158L22.7489 14.1263ZM20.6837 12.5783C20.7551 12.5783 20.7908 12.552 20.7857 12.5152L20.5613 10.804C20.5562 10.7461 20.5511 10.7303 20.5256 10.7303C20.5001 10.7303 20.495 10.7671 20.393 10.9093L19.1641 12.5783H20.6837Z" fill="#2E3192"/>
<path id="Vector_17" d="M25.7619 10.3935H25.7364C24.8237 13.0471 24.6197 13.9264 24.6605 14.2318C24.7013 14.5319 24.839 14.5687 25.1602 14.6161C25.4101 14.653 25.6242 14.7109 25.6395 14.832C25.6497 14.9162 25.5121 14.9899 25.3081 14.9899C24.9562 14.9899 24.6452 14.9531 24.2219 14.9531C23.9058 14.9531 23.6049 14.9899 23.2888 14.9899C23.1307 14.9899 23.0542 14.9636 23.0389 14.832C23.0185 14.6635 23.197 14.653 23.4112 14.6161C23.6253 14.5792 23.8854 14.5108 23.9874 14.1896C25.3081 10.0038 25.3795 9.91434 25.3489 9.67741C25.3285 9.51945 25.2469 9.46154 25.1347 9.44574C24.8237 9.40888 24.6503 9.37203 24.6299 9.20881C24.6197 9.12457 24.7319 9.06665 24.9256 9.06665C25.2775 9.06665 25.6242 9.10351 25.9761 9.10351C26.537 9.10351 26.894 9.06665 27.2356 9.06665C27.3325 9.06665 27.3835 9.09298 27.3988 9.20881L27.8934 12.5996H27.9189L30.0657 9.15616C30.1167 9.08245 30.1626 9.07192 30.3971 9.07192C30.6164 9.07192 31.06 9.10877 31.2793 9.10877C31.7892 9.10877 32.3094 9.07192 32.4674 9.07192C32.5745 9.07192 32.6663 9.10877 32.6765 9.18248C32.7224 9.53525 31.9626 9.22987 31.8606 9.73532C30.9988 14.1528 30.9734 14.3476 30.9887 14.4424C31.0039 14.5477 31.0957 14.5898 31.2793 14.6214C31.5139 14.6582 31.7535 14.6951 31.7637 14.8004C31.779 14.9215 31.621 14.9952 31.3252 14.9952C31.009 14.9952 30.6878 14.9583 30.081 14.9583C29.2396 14.9583 29.0152 14.9952 28.6379 14.9952C28.3829 14.9952 28.2555 14.9583 28.2402 14.8372C28.2198 14.6846 28.4237 14.6582 28.6481 14.6214C28.8878 14.5845 29.1172 14.5108 29.1886 14.1949L29.9331 10.4198L29.8923 10.3987L27.3274 14.2949C27.0724 14.6793 26.8379 14.9215 26.6441 14.9215C26.3993 14.9215 26.2922 14.8478 26.2514 14.5371L25.7517 10.3987L25.7619 10.3935Z" fill="#2E3192"/>
<path id="Vector_18" d="M37.618 14.1263C37.669 14.5106 37.8577 14.5738 38.0617 14.6107C38.2605 14.6475 38.4339 14.6475 38.4492 14.7792C38.4696 14.9371 38.3676 14.9845 38.0005 14.9845C37.8424 14.9845 37.5823 14.9477 36.9959 14.9477C35.8639 14.9477 35.5783 14.9845 35.3489 14.9845C35.1653 14.9845 35.0735 14.9371 35.0633 14.8634C35.0429 14.7055 35.2265 14.6475 35.6497 14.6107C35.8537 14.5896 35.9047 14.4264 35.8894 14.3106L35.7313 13.1154C35.716 13.0048 35.6854 12.9469 35.5171 12.9469H34.069C33.7528 12.9469 33.712 13.0048 33.5896 13.1891C33.2072 13.7841 33.0389 14.0684 33.0644 14.279C33.0899 14.4949 33.3245 14.6002 33.559 14.6054C33.7171 14.6159 33.8752 14.6265 33.8905 14.737C33.9109 14.895 33.814 14.9792 33.5794 14.9792C33.4825 14.9792 33.1256 14.9424 32.6361 14.9424C31.6978 14.9424 31.4377 14.9792 31.3613 14.9792C31.2848 14.9792 31.2236 14.9424 31.2134 14.8739C31.1879 14.6949 31.3664 14.6423 31.555 14.6002C31.7437 14.5633 31.9834 14.5159 32.0853 14.3738C33.0695 13.068 35.5426 9.69831 36.0373 9.10861C36.0985 9.0349 36.1546 8.99805 36.4707 8.99805C36.8735 8.99805 36.9398 9.0349 36.9551 9.14547L37.6129 14.1158L37.618 14.1263ZM35.5528 12.5783C35.6242 12.5783 35.6599 12.552 35.6548 12.5152L35.4305 10.804C35.4254 10.7461 35.4203 10.7303 35.3948 10.7303C35.3693 10.7303 35.3642 10.7671 35.2622 10.9093L34.0333 12.5783H35.5528Z" fill="#2E3192"/>
<path id="Vector_19" d="M43.6288 9.10345C44.2102 9.10345 44.0827 8.68224 44.4855 8.68224C44.5926 8.68224 44.6691 8.7033 44.6844 8.81387C44.6946 8.89811 44.6079 9.06659 44.2561 10.3618C44.1643 10.6777 44.1643 10.783 43.945 10.783C43.8124 10.783 43.7206 10.7356 43.7053 10.6145C43.6696 10.3513 43.7716 10.0196 43.7308 9.71947C43.7104 9.55099 43.5626 9.47727 43.175 9.47727C42.5427 9.47727 42.5325 9.4878 42.4968 9.59837L41.3189 13.9316C41.273 14.1159 41.2169 14.2738 41.2322 14.3791C41.2526 14.5213 41.3699 14.595 41.5534 14.6108C41.9971 14.6582 42.0991 14.674 42.1144 14.8003C42.1297 14.932 42.0889 14.9899 41.8594 14.9899C41.5432 14.9899 41.1506 14.953 40.299 14.953C39.2639 14.953 38.9885 14.9899 38.5908 14.9899C38.4072 14.9899 38.3154 14.932 38.3001 14.8109C38.2899 14.7371 38.3358 14.6213 38.5806 14.616C39.3047 14.5897 39.269 14.4844 39.4067 13.9632C40.5438 9.87216 40.6152 9.66682 40.5999 9.56678C40.5897 9.49307 40.5285 9.48254 40.1767 9.48254C38.9477 9.48254 39.0803 10.6777 38.6214 10.6777C38.4531 10.6777 38.3664 10.6672 38.3511 10.5566C38.3409 10.4619 38.4531 10.2091 38.9477 8.70857C38.9834 8.61379 39.0497 8.56641 39.2078 8.56641C39.3404 8.56641 39.4322 8.59273 39.4424 8.6875C39.4526 8.75069 39.3914 8.84546 39.4067 8.96656C39.4169 9.06133 39.5239 9.10871 39.7279 9.10871H43.6339L43.6288 9.10345Z" fill="#2E3192"/>
<path id="Vector_20" d="M47.2509 14.8583C47.2662 14.9583 47.1591 14.9899 46.9654 14.9899C46.379 14.9899 45.9506 14.9531 45.5121 14.9531C44.6248 14.9531 44.4106 14.9899 44.0792 14.9899C43.8854 14.9899 43.8293 14.9531 43.814 14.8372C43.7732 14.5319 44.5585 14.8636 44.6809 14.316C45.6498 10.1618 45.767 9.74059 45.7518 9.60896C45.711 9.30358 45.1806 9.50366 45.1449 9.24567C45.1245 9.10351 45.2418 9.06665 45.5223 9.06665C45.8894 9.06665 46.0118 9.10351 46.6849 9.10351C47.307 9.10351 47.6436 9.06665 48.1127 9.06665C48.3932 9.06665 48.4595 9.10351 48.4748 9.21934C48.5002 9.41415 48.1892 9.35097 47.9189 9.44574C47.7558 9.50366 47.6589 9.59316 47.6232 9.77218C46.6288 14.1264 46.5472 14.3213 46.5676 14.4897C46.6084 14.7899 47.2152 14.5845 47.2509 14.8636V14.8583Z" fill="#2E3192"/>
<path id="Vector_21" d="M53.2218 8.95068C53.7573 8.95068 54.2672 9.0244 54.2876 9.17708C54.3131 9.37189 54.206 9.82996 54.0428 10.4565C53.9867 10.6724 53.9306 10.7935 53.7318 10.7935C53.6094 10.7935 53.4972 10.7461 53.4768 10.625C53.4462 10.3828 53.4768 9.9142 53.436 9.5983C53.4054 9.3561 53.283 9.27186 53.0281 9.27186C51.8858 9.27186 50.0756 11.0251 50.3357 13.0259C50.4988 14.2579 51.019 14.7792 51.7227 14.7792C52.4264 14.7792 52.7731 14.3474 53.0383 13.6946C53.2116 13.2628 53.3238 13.0943 53.4921 13.0943C53.64 13.0943 53.6961 13.1523 53.7063 13.2523C53.7114 13.3102 53.6808 13.5314 53.5686 14.1579C53.4921 14.5791 53.4717 14.7002 53.2626 14.7845C52.9261 14.9266 52.1 15.0951 51.4779 15.0951C49.7747 15.0951 48.5866 14.2053 48.4132 12.9101C48.143 10.8567 50.5651 8.95068 53.2065 8.95068H53.2218Z" fill="#2E3192"/>
</g>
<path id="Vector_22" d="M9.94387 7.10258L11.0045 6.14432C11.0045 6.14432 10.7598 6.1022 10.7496 5.94951C10.7292 5.72311 10.8974 5.29664 10.8974 5.29664C10.8974 5.29664 10.6425 5.33876 10.515 5.35982C10.2039 5.41247 10.2039 5.18607 10.2243 5.03338C10.2243 5.03338 9.66851 5.72838 9.54613 5.67573C9.41865 5.61781 9.7654 4.30153 9.7654 4.30153C9.7654 4.30153 9.47474 4.49107 9.39825 4.50687C9.32686 4.52793 9.19938 4.54372 8.90363 3.65918C8.61297 4.54372 8.48039 4.52266 8.409 4.50687C8.33761 4.48581 8.04185 4.30153 8.04185 4.30153C8.04185 4.30153 8.3886 5.61781 8.26112 5.67573C8.14384 5.72838 7.58292 5.03338 7.58292 5.03338C7.60332 5.18607 7.60332 5.41247 7.29226 5.35982C7.15968 5.33876 6.90982 5.29664 6.90982 5.29664C6.90982 5.29664 7.07299 5.72311 7.0577 5.94951C7.0475 6.1022 6.80273 6.14432 6.80273 6.14432L7.86338 7.10258L7.7155 7.60803L8.82714 7.38163L8.79144 8.5189H9.01581L8.98012 7.38163L10.0918 7.60803L9.94387 7.10258Z" fill="#ED1C24"/>
<path id="Vector_23" d="M54.2148 14.5108C54.2148 13.979 54.5871 13.5684 55.1072 13.5684C55.6273 13.5684 55.9996 13.979 55.9996 14.5108C55.9996 15.0426 55.6222 15.448 55.1072 15.448C54.5922 15.448 54.2148 15.0426 54.2148 14.5108ZM55.1072 15.2795C55.4999 15.2795 55.7803 14.9426 55.7803 14.5108C55.7803 14.0791 55.505 13.7368 55.1072 13.7368C54.7095 13.7368 54.4392 14.0791 54.4392 14.5108C54.4392 14.9426 54.7146 15.2795 55.1072 15.2795ZM54.786 14.1423C54.786 14.0633 54.7809 14.0422 54.6738 14.037V13.9843H55.199C55.3571 13.9843 55.4795 14.0685 55.4795 14.2476C55.4795 14.3581 55.4081 14.4792 55.2806 14.5161C55.3571 14.6267 55.5356 14.8899 55.5814 14.9531V14.9899H55.3418C55.2653 14.9899 55.1837 14.7214 55.0817 14.5529H55.0205V14.8373C55.0205 14.9162 55.0205 14.932 55.1327 14.9426V14.9952H54.6738V14.9426C54.786 14.9373 54.786 14.9162 54.786 14.8373V14.1475V14.1423ZM55.0256 14.4845H55.0919C55.1786 14.4845 55.2245 14.4213 55.2245 14.2634C55.2245 14.1054 55.1837 14.0528 55.1021 14.0528H55.0256V14.4845Z" fill="#2E3192"/>
<g id="Group_2">
<path id="Vector_24" d="M15.7315 16.3902C15.7315 16.3902 15.7774 16.406 15.7774 16.4639C15.7774 16.5376 15.7672 16.5639 15.7315 16.5639H15.5021C15.4715 16.5639 15.4358 16.585 15.4358 16.6219V17.7486C15.4358 17.9539 15.497 18.0224 15.5837 18.0224C15.701 18.0224 15.6959 17.8802 15.7468 17.8802C15.7774 17.8802 15.7825 17.9118 15.7825 17.9539C15.7825 18.0803 15.5939 18.3488 15.344 18.3488C15.0635 18.3488 14.9565 18.133 14.9565 17.717V16.6219C14.9565 16.4744 14.7168 16.585 14.7168 16.485C14.7168 16.3955 14.8494 16.3744 14.9463 16.2954C15.2573 16.0638 15.2981 15.811 15.3593 15.811C15.395 15.811 15.4154 15.811 15.4154 15.8584L15.4256 16.3112C15.4256 16.3639 15.4409 16.3849 15.4715 16.3849H15.7163L15.7315 16.3902Z" fill="#2E3192"/>
<path id="Vector_25" d="M15.8496 17.3381C15.8496 16.78 16.2015 16.3271 16.6706 16.3271C17.1397 16.3271 17.4916 16.78 17.4916 17.3381C17.4916 17.8962 17.1397 18.349 16.6706 18.349C16.2015 18.349 15.8496 17.8962 15.8496 17.3381ZM16.7267 18.2331C16.8389 18.2331 16.9459 18.0488 16.9459 17.5908C16.9459 16.8221 16.8083 16.443 16.6196 16.443C16.4666 16.443 16.3901 16.7273 16.3901 17.0853C16.3901 17.7329 16.5023 18.2331 16.7267 18.2331Z" fill="#2E3192"/>
<path id="Vector_26" d="M18.5812 16.3902C18.6067 16.3902 18.627 16.406 18.627 16.4639C18.627 16.5376 18.6169 16.5639 18.5812 16.5639H18.3517C18.3211 16.5639 18.2854 16.585 18.2854 16.6219V17.7486C18.2854 17.9539 18.3466 18.0224 18.4333 18.0224C18.5506 18.0224 18.5455 17.8802 18.5965 17.8802C18.6271 17.8802 18.6322 17.9118 18.6322 17.9539C18.6322 18.0803 18.4435 18.3488 18.1936 18.3488C17.9132 18.3488 17.8061 18.133 17.8061 17.717V16.6219C17.8061 16.4744 17.5664 16.585 17.5664 16.485C17.5664 16.3955 17.699 16.3744 17.7959 16.2954C18.1069 16.0638 18.1477 15.811 18.2089 15.811C18.2446 15.811 18.265 15.811 18.265 15.8584L18.2752 16.3112C18.2752 16.3639 18.2905 16.3849 18.3211 16.3849H18.5659L18.5812 16.3902Z" fill="#2E3192"/>
<path id="Vector_27" d="M20.0299 17.854C20.0299 17.9699 20.0605 18.0383 20.1064 18.0383C20.1778 18.0383 20.2084 17.9067 20.2594 17.9067C20.2798 17.9067 20.3002 17.9278 20.3002 17.9593C20.3002 18.091 20.1625 18.349 19.8769 18.349C19.7392 18.349 19.673 18.2805 19.622 18.1699C19.5863 18.0962 19.5863 18.0225 19.5506 18.0225C19.5047 18.0225 19.4894 18.0541 19.3619 18.1805C19.2497 18.291 19.1477 18.349 19.0304 18.349C18.8163 18.349 18.6582 18.1752 18.6582 17.9277C18.6582 17.654 18.8367 17.4802 19.2905 17.238C19.5302 17.1064 19.5557 17.1011 19.5557 16.9853V16.6746C19.5557 16.522 19.52 16.4588 19.418 16.4588C19.2854 16.4588 19.1936 16.5904 19.1528 16.8484C19.1222 17.0485 18.8775 17.1432 18.7959 17.1432C18.7245 17.1432 18.6735 17.1011 18.6735 16.9695C18.6735 16.6746 19.0661 16.3271 19.5353 16.3271C19.8463 16.3271 20.0299 16.4325 20.0299 16.7431V17.8593V17.854ZM19.3517 17.9962C19.4639 17.9962 19.5557 17.8646 19.5557 17.6171V17.2801C19.5557 17.2801 19.5506 17.2485 19.5353 17.2485C19.52 17.2485 19.5149 17.2538 19.4996 17.2643C19.3517 17.3749 19.1681 17.5171 19.1681 17.7487C19.1681 17.9014 19.2293 18.0015 19.3568 18.0015L19.3517 17.9962Z" fill="#2E3192"/>
<path id="Vector_28" d="M20.4986 15.8111C20.4986 15.6058 20.2844 15.7111 20.2844 15.6058C20.2844 15.5531 20.315 15.5426 20.3966 15.5268C20.8096 15.4425 20.9014 15.353 20.9473 15.353C20.9677 15.353 20.9728 15.3636 20.9728 15.4373V17.9909C20.9728 18.2331 21.1921 18.1067 21.1921 18.2331C21.1921 18.2804 21.1462 18.3015 21.0748 18.3015C20.9677 18.3015 20.881 18.2857 20.6974 18.2857C20.5802 18.2857 20.4476 18.3015 20.366 18.3015C20.3201 18.3015 20.2793 18.2804 20.2793 18.2331C20.2793 18.1278 20.4986 18.2015 20.4986 18.054V15.8164V15.8111Z" fill="#2E3192"/>
<path id="Vector_29" d="M23.0495 16.3218C23.2433 16.3218 23.4115 16.3902 23.4472 16.4165C23.4676 16.4376 23.4727 16.5061 23.4727 16.9378C23.4727 17.0168 23.437 17.0694 23.3606 17.0694C23.1872 17.0694 23.1719 16.4587 23.0036 16.4587C22.8608 16.4587 22.7384 16.8114 22.7384 17.2695C22.7384 17.6117 22.8761 18.0382 23.1464 18.0382C23.2433 18.0382 23.3096 17.9908 23.3809 17.8645C23.4217 17.796 23.437 17.7276 23.4778 17.7276C23.5135 17.7276 23.5339 17.7592 23.5339 17.7908C23.5339 17.8908 23.4013 18.3489 22.9628 18.3489C22.5549 18.3489 22.2285 17.9066 22.2285 17.3853C22.2285 16.7746 22.5549 16.3218 23.0546 16.3218H23.0495Z" fill="#2E3192"/>
<path id="Vector_30" d="M23.8598 15.8111C23.8598 15.6058 23.6456 15.7111 23.6456 15.6058C23.6456 15.5531 23.6762 15.5426 23.7578 15.5268C24.1708 15.4425 24.2626 15.353 24.3085 15.353C24.3289 15.353 24.334 15.3636 24.334 15.4373V17.9909C24.334 18.2331 24.5533 18.1067 24.5533 18.2331C24.5533 18.2804 24.5074 18.3015 24.436 18.3015C24.3289 18.3015 24.2422 18.2857 24.0586 18.2857C23.9414 18.2857 23.8088 18.3015 23.7272 18.3015C23.6813 18.3015 23.6405 18.2804 23.6405 18.2331C23.6405 18.1278 23.8598 18.2015 23.8598 18.054V15.8164V15.8111Z" fill="#2E3192"/>
<path id="Vector_31" d="M25.3072 17.1958C25.2562 17.1958 25.2409 17.2274 25.2409 17.3485C25.2409 17.6644 25.3786 18.0382 25.6948 18.0382C25.8171 18.0382 25.9038 17.975 25.9548 17.9118C26.0364 17.8118 26.0415 17.7276 26.0874 17.7276C26.118 17.7276 26.1384 17.7434 26.1384 17.7855C26.1384 17.8592 26.067 18.0172 25.9701 18.1172C25.8273 18.2699 25.6744 18.3436 25.4959 18.3436C25.0217 18.3436 24.6953 17.8908 24.6953 17.3327C24.6953 16.7746 24.9962 16.3218 25.501 16.3218C25.9395 16.3218 26.1435 16.6956 26.1435 17.0326C26.1435 17.1642 26.118 17.1905 25.9344 17.1905H25.3021L25.3072 17.1958ZM25.3378 17.0642C25.552 17.0642 25.7101 17.0115 25.7101 16.7219C25.7101 16.564 25.6591 16.4639 25.5112 16.4639C25.348 16.4639 25.2409 16.7167 25.2409 16.9589C25.2409 17.0326 25.2715 17.0694 25.3378 17.0694V17.0642Z" fill="#2E3192"/>
<path id="Vector_32" d="M27.6587 17.854C27.6587 17.9699 27.6893 18.0383 27.7352 18.0383C27.8066 18.0383 27.8372 17.9067 27.8882 17.9067C27.9085 17.9067 27.9289 17.9278 27.9289 17.9593C27.9289 18.091 27.7913 18.349 27.5057 18.349C27.368 18.349 27.3017 18.2805 27.2507 18.1699C27.2151 18.0962 27.2151 18.0225 27.1794 18.0225C27.1335 18.0225 27.1182 18.0541 26.9907 18.1805C26.8785 18.291 26.7765 18.349 26.6592 18.349C26.4451 18.349 26.287 18.1752 26.287 17.9277C26.287 17.654 26.4655 17.4802 26.9193 17.238C27.159 17.1064 27.1845 17.1011 27.1845 16.9853V16.6746C27.1845 16.522 27.1488 16.4588 27.0468 16.4588C26.9142 16.4588 26.8224 16.5904 26.7816 16.8484C26.751 17.0485 26.5063 17.1432 26.4247 17.1432C26.3533 17.1432 26.3023 17.1011 26.3023 16.9695C26.3023 16.6746 26.6949 16.3271 27.1641 16.3271C27.4751 16.3271 27.6587 16.4325 27.6587 16.7431V17.8593V17.854ZM26.9805 17.9962C27.0927 17.9962 27.1845 17.8646 27.1845 17.6171V17.2801C27.1845 17.2801 27.1743 17.2485 27.1641 17.2485C27.1539 17.2485 27.1437 17.2538 27.1284 17.2643C26.9805 17.3749 26.7969 17.5171 26.7969 17.7487C26.7969 17.9014 26.8581 18.0015 26.9856 18.0015L26.9805 17.9962Z" fill="#2E3192"/>
<path id="Vector_33" d="M28.5722 18.012C28.5722 18.2384 28.7201 18.1226 28.7201 18.2437C28.7201 18.2911 28.6844 18.2963 28.6385 18.2963C28.5518 18.2963 28.4345 18.2805 28.3325 18.2805C28.205 18.2805 28.0725 18.2963 28.0266 18.2963C27.9654 18.2963 27.9399 18.2753 27.9399 18.2279C27.9399 18.1226 28.1031 18.2016 28.1031 18.0489V16.8748C28.1031 16.701 27.9297 16.7747 27.9297 16.6799C27.9297 16.6378 27.9603 16.6168 27.9909 16.6115C28.2305 16.5431 28.4906 16.3167 28.5212 16.3167C28.5365 16.3167 28.5467 16.3272 28.5467 16.3693V16.5431C28.5467 16.5799 28.5569 16.5904 28.5773 16.5904C28.6028 16.5904 28.6232 16.5588 28.6793 16.5009C28.7609 16.4167 28.8832 16.3219 29.026 16.3219C29.3014 16.3219 29.4646 16.5431 29.4646 16.9221V17.8909C29.4646 17.9804 29.485 18.1173 29.536 18.1437C29.6022 18.1805 29.6736 18.1594 29.6736 18.2279C29.6736 18.2753 29.643 18.2963 29.592 18.2963C29.4544 18.2963 29.3626 18.2805 29.23 18.2805C29.0974 18.2805 29.0158 18.2963 28.9444 18.2963C28.8832 18.2963 28.8578 18.2753 28.8578 18.2279C28.8578 18.1226 28.9954 18.2174 28.9954 18.0489V16.8642C28.9954 16.6905 28.9138 16.6062 28.7915 16.6062C28.6691 16.6062 28.5824 16.6905 28.5824 16.8642V18.012H28.5722Z" fill="#2E3192"/>
<path id="Vector_34" d="M30.4378 17.9909C30.4378 18.2331 30.6571 18.1067 30.6571 18.2331C30.6571 18.2805 30.6112 18.3015 30.5398 18.3015C30.4327 18.3015 30.3256 18.2858 30.2236 18.2858C30.0451 18.2858 29.9177 18.3015 29.8667 18.3015C29.8157 18.3015 29.78 18.2805 29.78 18.2331C29.78 18.1278 29.9636 18.2015 29.9636 18.0541V16.88C29.9636 16.7062 29.7596 16.7799 29.7596 16.6852C29.7596 16.643 29.8055 16.622 29.831 16.6167C30.0706 16.5483 30.3562 16.3219 30.4021 16.3219C30.4327 16.3219 30.4378 16.3534 30.4378 16.464V17.9856V17.9909ZM30.1981 15.5374C30.3613 15.5374 30.4684 15.6742 30.4684 15.848C30.4684 16.0217 30.3613 16.1586 30.1981 16.1586C30.0349 16.1586 29.9279 16.0217 29.9279 15.848C29.9279 15.6742 30.0349 15.5374 30.1981 15.5374Z" fill="#2E3192"/>
<path id="Vector_35" d="M31.4164 18.012C31.4164 18.2384 31.5643 18.1226 31.5643 18.2437C31.5643 18.2911 31.5286 18.2963 31.4776 18.2963C31.396 18.2963 31.2736 18.2805 31.1716 18.2805C31.0441 18.2805 30.9115 18.2963 30.8657 18.2963C30.8045 18.2963 30.779 18.2753 30.779 18.2279C30.779 18.1226 30.9421 18.2016 30.9421 18.0489V16.8748C30.9421 16.701 30.7637 16.7747 30.7637 16.6799C30.7637 16.6378 30.7994 16.6168 30.8249 16.6115C31.0645 16.5431 31.3246 16.3167 31.3552 16.3167C31.3705 16.3167 31.3807 16.3272 31.3807 16.3693V16.5431C31.3807 16.5799 31.3909 16.5904 31.4113 16.5904C31.4368 16.5904 31.4521 16.5588 31.5133 16.5009C31.5948 16.4167 31.7172 16.3219 31.86 16.3219C32.1405 16.3219 32.2985 16.5431 32.2985 16.9221V17.8909C32.2985 17.9804 32.3189 18.1173 32.3699 18.1437C32.4362 18.1805 32.5076 18.1594 32.5076 18.2279C32.5076 18.2753 32.477 18.2963 32.426 18.2963C32.2883 18.2963 32.1966 18.2805 32.064 18.2805C31.9314 18.2805 31.8549 18.2963 31.7784 18.2963C31.7172 18.2963 31.6917 18.2753 31.6917 18.2279C31.6917 18.1226 31.8294 18.2174 31.8294 18.0489V16.8642C31.8294 16.6905 31.7478 16.6062 31.6254 16.6062C31.5031 16.6062 31.4164 16.6905 31.4164 16.8642V18.012Z" fill="#2E3192"/>
<path id="Vector_36" d="M33.5687 17.975C34.0379 17.975 34.1857 18.2593 34.1857 18.5753C34.1857 18.9649 33.7472 19.2703 33.2985 19.2703C32.9211 19.2703 32.5744 19.107 32.5744 18.7806C32.5744 18.6648 32.6203 18.5963 32.7121 18.5279C32.8854 18.412 32.9466 18.3962 32.9466 18.3541C32.9466 18.2646 32.6407 18.0382 32.6407 17.9434C32.6407 17.8592 32.9823 17.7328 32.9823 17.6749C32.9823 17.6433 32.9058 17.6012 32.8293 17.5064C32.7528 17.4169 32.6713 17.2748 32.6713 17.0642C32.6713 16.6219 32.9772 16.3218 33.3291 16.3218C33.4463 16.3218 33.5279 16.3534 33.5993 16.385C33.6656 16.4113 33.7217 16.4481 33.7778 16.4481H34.1092C34.1704 16.4481 34.1806 16.4587 34.1806 16.5219V16.5798C34.1806 16.6377 34.1704 16.6482 34.1092 16.6482H34.0124C33.9767 16.6482 33.9614 16.6745 33.9614 16.6956C33.9614 16.7483 34.0277 16.8062 34.0277 17.0168C34.0277 17.4696 33.7625 17.7381 33.2424 17.7381C33.1047 17.7381 33.0588 17.775 33.0588 17.8381C33.0588 17.875 33.1047 17.9698 33.2628 17.9698H33.5789L33.5687 17.975ZM33.8543 18.8017C33.8543 18.57 33.7013 18.5068 33.5177 18.5068C33.4157 18.5068 33.2526 18.4963 33.171 18.4805C33.1149 18.47 33.0945 18.4436 33.0741 18.4436C33.0027 18.4436 32.9364 18.5542 32.9364 18.7069C32.9364 18.9859 33.1812 19.1544 33.4004 19.1544C33.5738 19.1544 33.8492 19.0439 33.8492 18.8017H33.8543ZM33.375 17.6223C33.4769 17.6223 33.5279 17.4275 33.5279 17.0852C33.5279 16.6693 33.4259 16.4429 33.324 16.4429C33.1914 16.4429 33.1608 16.6008 33.1608 16.9062C33.1608 17.4011 33.2373 17.6223 33.375 17.6223Z" fill="#2E3192"/>
<path id="Vector_37" d="M36.6235 17.3115C36.6745 17.2168 36.7765 17.0325 36.7765 16.9272C36.7765 16.8587 36.751 16.8272 36.6796 16.8166C36.6031 16.8061 36.5674 16.7956 36.5674 16.7534C36.5674 16.7166 36.5878 16.6797 36.6388 16.6797C36.7306 16.6797 36.7969 16.6903 36.8632 16.6903C36.9499 16.6903 37.0366 16.6797 37.159 16.6797C37.2151 16.6797 37.2405 16.6955 37.2405 16.7534C37.2405 16.8008 37.1437 16.8008 37.0519 16.8429C36.9652 16.8798 36.8887 17.0693 36.7 17.4484C37.0876 18.0855 37.1488 18.1329 37.1947 18.1382C37.2558 18.1382 37.2966 18.1645 37.2966 18.2066C37.2966 18.2593 37.2507 18.2961 37.1794 18.2961C37.0825 18.2961 36.9805 18.2803 36.8785 18.2803C36.649 18.2803 36.5215 18.2961 36.4706 18.2961C36.3992 18.2961 36.3686 18.2909 36.3686 18.2277C36.3686 18.1434 36.4706 18.1487 36.4706 18.1013C36.4706 18.0434 36.4247 17.9592 36.4043 17.9276C36.1952 18.154 36.0269 18.3435 35.7465 18.3435C35.3589 18.3435 35.1855 17.9907 35.1855 17.6538C35.1855 16.9482 35.7363 16.9219 35.7363 16.8061C35.7363 16.7271 35.5221 16.527 35.5221 16.2111C35.5221 15.8426 35.7771 15.5898 36.1493 15.5898C36.5725 15.5898 36.7408 15.7899 36.7408 16.09C36.7408 16.4428 36.2666 16.6007 36.2666 16.6692C36.2666 16.6955 36.2666 16.7061 36.3329 16.8114L36.6235 17.3063V17.3115ZM36.032 17.9486C36.1544 17.9486 36.3125 17.8591 36.3125 17.7907C36.3125 17.717 36.2003 17.5801 35.8383 16.964C35.7057 17.0378 35.6445 17.2115 35.6445 17.38C35.6445 17.7328 35.8179 17.9434 36.032 17.9434V17.9486ZM36.032 16.2638C36.0881 16.3533 36.1289 16.4323 36.1799 16.5428C36.3074 16.4797 36.3431 16.327 36.3431 16.1637C36.3431 15.911 36.2717 15.7267 36.1136 15.7267C35.9963 15.7267 35.9351 15.811 35.9351 15.9426C35.9351 16.0216 35.9606 16.1637 36.0269 16.269L36.032 16.2638Z" fill="#2E3192"/>
<path id="Vector_38" d="M39.6627 16.7325C39.6627 16.8852 39.5913 17.0642 39.4231 17.0642C39.1375 17.0642 39.2599 16.7536 39.1579 16.7536C39.0763 16.7536 38.9896 16.8852 38.9896 17.1379V17.8171C38.9896 18.0909 39.0151 18.1541 39.1885 18.1699C39.2293 18.1699 39.2701 18.1857 39.2701 18.2384C39.2701 18.2805 39.2497 18.3068 39.1987 18.3068C39.112 18.3068 39.0355 18.291 38.7347 18.291C38.4848 18.291 38.4236 18.3068 38.3624 18.3068C38.3165 18.3068 38.291 18.2805 38.291 18.2384C38.291 18.1225 38.5205 18.2278 38.5205 17.9646V17.0221C38.5205 16.6851 38.291 16.88 38.291 16.7431C38.291 16.6588 38.3624 16.7062 38.7143 16.4535C38.8519 16.3587 38.8774 16.3376 38.9131 16.3376C38.9386 16.3376 38.9488 16.3534 38.9488 16.3903V16.6693C38.9488 16.7009 38.9641 16.7115 38.9743 16.7115C39.0355 16.7115 39.1069 16.3692 39.3721 16.3692C39.5454 16.3692 39.6729 16.5009 39.6729 16.7431L39.6627 16.7325Z" fill="#2E3192"/>
<path id="Vector_39" d="M40.366 17.1958C40.315 17.1958 40.2997 17.2274 40.2997 17.3485C40.2997 17.6644 40.4374 18.0382 40.7536 18.0382C40.8811 18.0382 40.9626 17.975 41.0136 17.9118C41.0952 17.8118 41.1003 17.7276 41.1462 17.7276C41.1768 17.7276 41.1972 17.7434 41.1972 17.7855C41.1972 17.8592 41.1258 18.0172 41.0289 18.1172C40.8862 18.2699 40.7332 18.3436 40.5547 18.3436C40.0805 18.3436 39.7541 17.8908 39.7541 17.3327C39.7541 16.7746 40.055 16.3218 40.5598 16.3218C40.9983 16.3218 41.2023 16.6956 41.2023 17.0326C41.2023 17.1642 41.1768 17.1905 40.9932 17.1905H40.3609L40.366 17.1958ZM40.3966 17.0642C40.6108 17.0642 40.7689 17.0115 40.7689 16.7219C40.7689 16.564 40.7179 16.4639 40.57 16.4639C40.4068 16.4639 40.2997 16.7167 40.2997 16.9589C40.2997 17.0326 40.3303 17.0694 40.3966 17.0694V17.0642Z" fill="#2E3192"/>
<path id="Vector_40" d="M41.9774 18.191C42.1253 18.191 42.2426 18.1173 42.2426 17.8962C42.2426 17.5065 41.3859 17.6434 41.3859 16.9695C41.3859 16.5693 41.7275 16.3271 42.0284 16.3271C42.2681 16.3271 42.5179 16.4009 42.523 16.4535C42.5332 16.4956 42.5332 16.543 42.5332 16.7694C42.5332 16.8484 42.5026 16.8642 42.4618 16.8642C42.2936 16.8642 42.2579 16.464 41.9876 16.464C41.8601 16.464 41.7836 16.5746 41.7836 16.701C41.7836 17.0906 42.6403 16.9748 42.6403 17.6276C42.6403 18.1068 42.2222 18.3542 41.8448 18.3542C41.6154 18.3542 41.4828 18.2805 41.4114 18.2279C41.391 18.2173 41.3808 18.191 41.3808 17.7698C41.3808 17.6961 41.4012 17.6592 41.4522 17.6592C41.6409 17.6592 41.6103 18.191 41.9876 18.191H41.9774Z" fill="#2E3192"/>
<path id="Vector_41" d="M43.7061 16.3902C43.7316 16.3902 43.752 16.406 43.752 16.4639C43.752 16.5376 43.7418 16.5639 43.7061 16.5639H43.4766C43.446 16.5639 43.4103 16.585 43.4103 16.6219V17.7486C43.4103 17.9539 43.4715 18.0224 43.5582 18.0224C43.6755 18.0224 43.6653 17.8802 43.7214 17.8802C43.752 17.8802 43.7571 17.9118 43.7571 17.9539C43.7571 18.0803 43.5684 18.3488 43.3185 18.3488C43.0381 18.3488 42.931 18.133 42.931 17.717V16.6219C42.931 16.4744 42.6913 16.585 42.6913 16.485C42.6913 16.3955 42.8239 16.3744 42.9208 16.2954C43.2318 16.0638 43.2726 15.811 43.3338 15.811C43.3695 15.811 43.395 15.811 43.395 15.8584L43.4052 16.3112C43.4052 16.3639 43.4205 16.3849 43.4511 16.3849H43.6959L43.7061 16.3902Z" fill="#2E3192"/>
<path id="Vector_42" d="M43.8242 17.3381C43.8242 16.78 44.1761 16.3271 44.6452 16.3271C45.1143 16.3271 45.4662 16.78 45.4662 17.3381C45.4662 17.8962 45.1143 18.349 44.6452 18.349C44.1761 18.349 43.8242 17.8962 43.8242 17.3381ZM44.7013 18.2331C44.8135 18.2331 44.9206 18.0488 44.9206 17.5908C44.9206 16.8221 44.7829 16.443 44.5942 16.443C44.4412 16.443 44.3647 16.7273 44.3647 17.0853C44.3647 17.7329 44.4769 18.2331 44.7013 18.2331Z" fill="#2E3192"/>
<path id="Vector_43" d="M46.9842 16.7325C46.9842 16.8852 46.9128 17.0642 46.7395 17.0642C46.4539 17.0642 46.5763 16.7536 46.4743 16.7536C46.3927 16.7536 46.306 16.8852 46.306 17.1379V17.8171C46.306 18.0909 46.3264 18.1541 46.5049 18.1699C46.5457 18.1699 46.5865 18.1857 46.5865 18.2384C46.5865 18.2805 46.5661 18.3068 46.5151 18.3068C46.4284 18.3068 46.3519 18.291 46.0511 18.291C45.8012 18.291 45.74 18.3068 45.6788 18.3068C45.6329 18.3068 45.6074 18.2805 45.6074 18.2384C45.6074 18.1225 45.8369 18.2278 45.8369 17.9646V17.0221C45.8369 16.6851 45.6074 16.88 45.6074 16.7431C45.6074 16.6588 45.6788 16.7062 46.0307 16.4535C46.1683 16.3587 46.1938 16.3376 46.2295 16.3376C46.255 16.3376 46.2601 16.3534 46.2601 16.3903V16.6693C46.2601 16.7009 46.2754 16.7115 46.2856 16.7115C46.3468 16.7115 46.4182 16.3692 46.6834 16.3692C46.8567 16.3692 46.9842 16.5009 46.9842 16.7431V16.7325Z" fill="#2E3192"/>
<path id="Vector_44" d="M48.4127 17.854C48.4127 17.9699 48.4483 18.0383 48.4891 18.0383C48.5605 18.0383 48.5911 17.9067 48.6421 17.9067C48.6625 17.9067 48.6829 17.9278 48.6829 17.9593C48.6829 18.091 48.5452 18.349 48.2597 18.349C48.122 18.349 48.0557 18.2805 48.0047 18.1699C47.969 18.0962 47.969 18.0225 47.9333 18.0225C47.8874 18.0225 47.8721 18.0541 47.7447 18.1805C47.6325 18.291 47.5305 18.349 47.4132 18.349C47.199 18.349 47.041 18.1752 47.041 17.9277C47.041 17.654 47.2194 17.4802 47.6733 17.238C47.9129 17.1064 47.9384 17.1011 47.9384 16.9853V16.6746C47.9384 16.522 47.9027 16.4588 47.8007 16.4588C47.6682 16.4588 47.5764 16.5904 47.5356 16.8484C47.4999 17.0485 47.2602 17.1432 47.1786 17.1432C47.1072 17.1432 47.0563 17.1011 47.0563 16.9695C47.0563 16.6746 47.4489 16.3271 47.918 16.3271C48.2291 16.3271 48.4127 16.4325 48.4127 16.7431V17.8593V17.854ZM47.7345 17.9962C47.8466 17.9962 47.9333 17.8646 47.9333 17.6171V17.2801C47.9333 17.2801 47.9282 17.2485 47.9129 17.2485C47.9027 17.2485 47.8925 17.2538 47.8772 17.2643C47.7294 17.3749 47.5458 17.5171 47.5458 17.7487C47.5458 17.9014 47.607 18.0015 47.7345 18.0015V17.9962Z" fill="#2E3192"/>
<path id="Vector_45" d="M49.6105 16.3902C49.6359 16.3902 49.6563 16.406 49.6563 16.4639C49.6563 16.5376 49.6461 16.5639 49.6105 16.5639H49.381C49.3504 16.5639 49.3147 16.585 49.3147 16.6219V17.7486C49.3147 17.9539 49.3759 18.0224 49.4626 18.0224C49.5799 18.0224 49.5748 17.8802 49.6258 17.8802C49.6563 17.8802 49.6614 17.9118 49.6614 17.9539C49.6614 18.0803 49.4728 18.3488 49.2229 18.3488C48.9425 18.3488 48.8354 18.133 48.8354 17.717V16.6219C48.8354 16.4744 48.5957 16.585 48.5957 16.485C48.5957 16.3955 48.7283 16.3744 48.8252 16.2954C49.1362 16.0638 49.177 15.811 49.2382 15.811C49.2739 15.811 49.2994 15.811 49.2994 15.8584L49.3096 16.3112C49.3096 16.3639 49.3249 16.3849 49.3555 16.3849H49.6003L49.6105 16.3902Z" fill="#2E3192"/>
<path id="Vector_46" d="M50.3755 17.9909C50.3755 18.2331 50.5947 18.1067 50.5947 18.2331C50.5947 18.2805 50.5488 18.3015 50.4775 18.3015C50.3704 18.3015 50.2633 18.2858 50.1613 18.2858C49.9879 18.2858 49.8553 18.3015 49.8043 18.3015C49.7534 18.3015 49.7177 18.2805 49.7177 18.2331C49.7177 18.1278 49.9012 18.2015 49.9012 18.0541V16.88C49.9012 16.7062 49.6973 16.7799 49.6973 16.6852C49.6973 16.643 49.7432 16.622 49.7687 16.6167C50.0083 16.5483 50.2939 16.3219 50.3398 16.3219C50.3755 16.3219 50.3755 16.3534 50.3755 16.464V17.9856V17.9909ZM50.1358 15.5374C50.299 15.5374 50.4061 15.6742 50.4061 15.848C50.4061 16.0217 50.299 16.1586 50.1358 16.1586C49.9726 16.1586 49.8655 16.0217 49.8655 15.848C49.8655 15.6742 49.9726 15.5374 50.1358 15.5374Z" fill="#2E3192"/>
<path id="Vector_47" d="M50.7422 17.3381C50.7422 16.78 51.094 16.3271 51.5632 16.3271C52.0323 16.3271 52.3841 16.78 52.3841 17.3381C52.3841 17.8962 52.0323 18.349 51.5632 18.349C51.094 18.349 50.7422 17.8962 50.7422 17.3381ZM51.6193 18.2331C51.7314 18.2331 51.8385 18.0488 51.8385 17.5908C51.8385 16.8221 51.7008 16.443 51.5122 16.443C51.3592 16.443 51.2827 16.7273 51.2827 17.0853C51.2827 17.7329 51.3949 18.2331 51.6193 18.2331Z" fill="#2E3192"/>
<path id="Vector_48" d="M53.1907 18.012C53.1907 18.2384 53.3385 18.1226 53.3385 18.2437C53.3385 18.2911 53.3028 18.2963 53.257 18.2963C53.1703 18.2963 53.053 18.2805 52.951 18.2805C52.8235 18.2805 52.6909 18.2963 52.645 18.2963C52.5839 18.2963 52.5584 18.2753 52.5584 18.2279C52.5584 18.1226 52.7215 18.2016 52.7215 18.0489V16.8748C52.7215 16.701 52.5431 16.7747 52.5431 16.6799C52.5431 16.6378 52.5788 16.6168 52.6043 16.6115C52.8439 16.5431 53.104 16.3167 53.1346 16.3167C53.1499 16.3167 53.1601 16.3272 53.1601 16.3693V16.5431C53.1601 16.5799 53.1703 16.5904 53.1907 16.5904C53.2162 16.5904 53.2366 16.5588 53.2927 16.5009C53.3742 16.4167 53.4966 16.3219 53.6394 16.3219C53.9199 16.3219 54.0779 16.5431 54.0779 16.9221V17.8909C54.0779 17.9804 54.0983 18.1173 54.1493 18.1437C54.2156 18.1805 54.287 18.1594 54.287 18.2279C54.287 18.2753 54.2564 18.2963 54.2054 18.2963C54.0677 18.2963 53.9759 18.2805 53.8434 18.2805C53.7108 18.2805 53.6292 18.2963 53.5578 18.2963C53.4966 18.2963 53.4711 18.2753 53.4711 18.2279C53.4711 18.1226 53.6088 18.2174 53.6088 18.0489V16.8642C53.6088 16.6905 53.5272 16.6062 53.4048 16.6062C53.2825 16.6062 53.1958 16.6905 53.1958 16.8642V18.012H53.1907Z" fill="#2E3192"/>
</g>
</g>
<defs>
<clipPath id="clip0_142_21297">
<rect width="56" height="28" fill="white"/>
</clipPath>
</defs>
</svg>
